<svg width="355" height="146" viewBox="0 0 355 146" fill="none" xmlns="http://www.w3.org/2000/svg">
<path d="M97 89H111V121.6H97V143H61.4V121.6H1.19209e-07V89L41.8 2.99999H81.4L39.2 89H61.4V63.8H97V89ZM219.202 126.2C209.068 139.4 194.868 146 176.602 146C158.335 146 144.068 139.4 133.802 126.2C123.668 112.867 118.602 95.1333 118.602 73C118.602 50.7333 123.668 33.0667 133.802 20C143.935 6.66666 158.202 -6.67572e-06 176.602 -6.67572e-06C194.868 -6.67572e-06 209.068 6.66666 219.202 20C229.468 33.3333 234.602 51 234.602 73C234.602 95 229.468 112.733 219.202 126.2ZM176.602 34.8C161.802 34.8 154.402 47.5333 154.402 73C154.402 98.4667 161.802 111.2 176.602 111.2C191.402 111.2 198.802 98.4667 198.802 73C198.802 47.5333 191.402 34.8 176.602 34.8ZM340.555 89H354.555V121.6H340.555V143H304.955V121.6H243.555V89L285.355 2.99999H324.955L282.755 89H304.955V63.8H340.555V89Z" fill="url(#paint0_linear_110_1198)"/>
<defs>
<linearGradient id="paint0_linear_110_1198" x1="-9.72768" y1="-19.1875" x2="378.579" y2="174.605" gradientUnits="userSpaceOnUse">
<stop stop-color="#43A548"/>
<stop offset="1" stop-color="#52E259"/>
</linearGradient>
</defs>
</svg>
