<svg width="30" height="26" viewBox="0 0 30 26" fill="none" xmlns="http://www.w3.org/2000/svg">
<path d="M15.0003 25L14.8669 24.7999C13.9407 23.4106 13.4776 22.716 12.8658 22.2131C12.3241 21.7679 11.7 21.4339 11.0291 21.2301C10.2713 21 9.43647 21 7.76676 21H5.93366C4.44019 21 3.69345 21 3.12302 20.7094C2.62125 20.4537 2.2133 20.0457 1.95764 19.544C1.66699 18.9735 1.66699 18.2268 1.66699 16.7333V5.26667C1.66699 3.77319 1.66699 3.02646 1.95764 2.45603C2.2133 1.95426 2.62125 1.54631 3.12302 1.29065C3.69345 1 4.44019 1 5.93366 1H6.46699C9.45394 1 10.9474 1 12.0883 1.5813C13.0918 2.09262 13.9077 2.90852 14.419 3.91205C15.0003 5.05291 15.0003 6.54639 15.0003 9.53333M15.0003 25V9.53333M15.0003 25L15.1337 24.7999C16.0599 23.4106 16.523 22.716 17.1349 22.2131C17.6765 21.7679 18.3006 21.4339 18.9715 21.2301C19.7293 21 20.5642 21 22.2339 21H24.067C25.5605 21 26.3072 21 26.8776 20.7094C27.3794 20.4537 27.7873 20.0457 28.043 19.544C28.3337 18.9735 28.3337 18.2268 28.3337 16.7333V5.26667C28.3337 3.77319 28.3337 3.02646 28.043 2.45603C27.7873 1.95426 27.3794 1.54631 26.8776 1.29065C26.3072 1 25.5605 1 24.067 1H23.5337C20.5467 1 19.0532 1 17.9124 1.5813C16.9088 2.09262 16.0929 2.90852 15.5816 3.91205C15.0003 5.05291 15.0003 6.54639 15.0003 9.53333" stroke="#43A548" stroke-width="2" stroke-linecap="round" stroke-linejoin="round"/>
</svg>
