<svg width="20" height="20" viewBox="0 0 20 20" fill="none" xmlns="http://www.w3.org/2000/svg">
<path d="M13.3333 3.33366C14.1082 3.33366 14.4957 3.33366 14.8136 3.41884C15.6764 3.65001 16.3502 4.32388 16.5814 5.18661C16.6666 5.50453 16.6666 5.89202 16.6666 6.66699V14.3337C16.6666 15.7338 16.6666 16.4339 16.3941 16.9686C16.1544 17.439 15.772 17.8215 15.3016 18.0612C14.7668 18.3337 14.0667 18.3337 12.6666 18.3337H7.33325C5.93312 18.3337 5.23305 18.3337 4.69828 18.0612C4.22787 17.8215 3.84542 17.439 3.60574 16.9686C3.33325 16.4339 3.33325 15.7338 3.33325 14.3337V6.66699C3.33325 5.89202 3.33325 5.50453 3.41844 5.18661C3.64961 4.32388 4.32347 3.65001 5.1862 3.41884C5.50412 3.33366 5.89161 3.33366 6.66659 3.33366M7.49992 12.5003L9.16659 14.167L12.9166 10.417M7.99992 5.00033H11.9999C12.4666 5.00033 12.7 5.00033 12.8782 4.9095C13.035 4.8296 13.1625 4.70212 13.2424 4.54532C13.3333 4.36706 13.3333 4.1337 13.3333 3.66699V3.00033C13.3333 2.53362 13.3333 2.30026 13.2424 2.122C13.1625 1.9652 13.035 1.83771 12.8782 1.75782C12.7 1.66699 12.4666 1.66699 11.9999 1.66699H7.99992C7.53321 1.66699 7.29985 1.66699 7.12159 1.75782C6.96479 1.83771 6.83731 1.9652 6.75741 2.122C6.66659 2.30026 6.66659 2.53362 6.66659 3.00033V3.66699C6.66659 4.1337 6.66659 4.36706 6.75741 4.54532C6.83731 4.70212 6.96479 4.8296 7.12159 4.9095C7.29985 5.00033 7.53321 5.00033 7.99992 5.00033Z" stroke="#43A548" stroke-width="2" stroke-linecap="round" stroke-linejoin="round"/>
</svg>
