<svg width="119" height="32" viewBox="0 0 119 32" fill="none" xmlns="http://www.w3.org/2000/svg">
<path d="M18.0319 0.25834C17.7572 0.433108 17.7073 1.40682 17.7322 4.97708C17.7572 8.048 17.7073 9.52104 17.5075 9.64588C17.3576 9.74574 16.5834 9.54601 15.8092 9.22144C14.6604 8.74707 13.9362 8.6472 12.0132 8.6472C8.49187 8.67217 6.51893 9.47111 4.12142 11.8679C2.74785 13.2411 2.17345 14.1649 1.27439 16.3869C0.400299 18.5341 0.774909 22.5537 2.09853 25.2252C2.92267 26.898 5.12038 28.9702 7.14328 29.9939C8.86648 30.8427 8.9414 30.8677 12.0132 30.8677C15.3098 30.8677 15.6594 30.7678 18.3816 29.12C19.1558 28.6706 19.1558 28.6706 19.88 29.3447C21.0788 30.4433 22.6022 31.0175 24.0756 30.9426L25.3743 30.8677V25.8993L24.3753 25.4L23.3764 24.8757L23.3014 12.7917C23.2765 4.37787 23.1516 0.607876 22.9768 0.358207C22.6521 -0.0162957 18.6063 -0.116163 18.0319 0.25834ZM13.3618 14.3646C16.8582 15.4132 18.6313 19.1832 17.0579 22.2042C15.2099 25.7495 11.0142 26.5734 8.29208 23.9519C6.5439 22.3041 5.9695 20.5314 6.51893 18.5091C7.14328 16.1622 9.41591 14.2647 11.9133 14.04C12.0632 14.0151 12.7125 14.1649 13.3618 14.3646ZM53.7447 0.383175C53.5449 0.607876 53.495 4.85224 53.52 15.7877L53.5949 30.8677H58.9893V15.6629C58.9893 3.47906 58.9143 0.408141 58.6646 0.25834C58.0902 -0.116163 54.0694 -0.0162951 53.7447 0.383175ZM63.9841 0.383175C63.7843 0.607876 63.7343 4.85224 63.7593 15.7877L63.8342 30.8677H69.3285L69.4034 15.7628C69.4534 1.78132 69.4284 0.632843 69.0288 0.333241C68.4294 -0.0911959 64.3587 -0.0662288 63.9841 0.383175ZM90.1818 8.14787C90.007 8.37257 89.932 8.82197 90.007 9.27137C90.3066 10.7195 89.6573 11.2188 88.7832 10.2451C86.2609 7.47376 80.0174 8.2727 76.4211 11.818C74.7728 13.4408 73.8488 15.2385 73.2994 17.86C72.9497 19.5577 72.9497 19.9572 73.2994 21.7798C73.9986 25.5248 76.2713 28.4709 79.6927 30.0937C81.2161 30.8178 81.4908 30.8677 84.3129 30.8677C87.1849 30.8677 87.3847 30.8427 88.9331 30.0688C89.8321 29.6194 90.7312 29.12 90.9809 28.9453C91.3056 28.6956 91.5304 28.7705 92.2546 29.4196C93.4284 30.4433 95.0767 31.0425 96.4503 30.9426L97.5491 30.8677L97.624 28.3461L97.699 25.7994L96.725 25.4249C96.0257 25.1503 95.701 24.8257 95.5762 24.3514C95.4763 23.9769 95.4263 20.2069 95.4513 15.9375C95.4763 9.59594 95.4263 8.17283 95.1516 7.99807C94.9518 7.87323 93.828 7.77336 92.6542 7.77336C91.0309 7.77336 90.4065 7.87323 90.1818 8.14787ZM86.5855 14.6892C88.5335 15.588 89.932 17.7351 89.932 19.8324C89.932 21.4802 89.4326 22.5787 88.059 23.877C85.9362 25.9492 82.9643 26.0241 80.6917 24.0518C79.2931 22.8783 78.6937 21.605 78.6937 19.8823C78.6937 17.9349 79.4679 16.5118 81.2161 15.1885C82.7395 14.04 84.7624 13.8403 86.5855 14.6892ZM101.92 8.2727C101.745 8.59727 101.695 12.4671 101.72 19.8074L101.795 30.8677H107.039L107.164 24.626C107.314 17.5853 107.314 17.5604 109.237 15.7128C110.536 14.4645 112.009 13.9402 113.557 14.1898C114.182 14.2897 114.432 14.1898 114.881 13.6406C115.156 13.2661 115.406 12.7917 115.406 12.6169C115.406 12.4172 115.505 12.0677 115.655 11.818C115.78 11.5933 116.08 10.9691 116.305 10.4448C116.704 9.54601 116.704 9.49608 116.255 9.14654C115.63 8.69714 113.033 8.4225 111.385 8.6472C110.211 8.82197 109.936 8.97177 108.787 10.1702C108.088 10.9192 107.439 11.4435 107.339 11.3436C107.239 11.2687 107.164 10.5447 107.164 9.77071C107.164 8.99674 107.039 8.24773 106.864 8.07296C106.665 7.87323 105.741 7.77336 104.367 7.77336C102.469 7.77336 102.144 7.8233 101.92 8.2727ZM35.7385 8.89687C33.5658 9.52104 32.2172 10.295 30.7437 11.7681C29.0205 13.5157 28.1214 15.1636 27.597 17.6103C27.2224 19.3081 27.1974 19.8074 27.4721 21.4802C28.1963 25.8993 30.9685 29.1949 35.0642 30.5182C36.3129 30.9426 37.1121 31.0175 39.11 30.9426C41.3077 30.8427 41.8072 30.7429 43.3556 30.0188C47.8509 27.8717 50.2983 23.1779 49.5491 18.0347C48.9248 13.8403 46.3774 10.8443 41.8821 9.04667C40.6584 8.54734 37.2869 8.47244 35.7385 8.89687ZM40.6584 14.5394C41.6324 14.8889 43.2806 16.5867 43.7551 17.7102C44.4544 19.333 44.3795 20.881 43.5054 22.4039C41.2078 26.3986 36.3379 26.4985 33.7156 22.6286C32.5168 20.856 32.5918 18.609 33.8904 16.7115C35.4388 14.4894 38.161 13.6156 40.6584 14.5394ZM113.582 25.0005C111.959 26.0241 111.41 28.3211 112.409 29.919C113.408 31.5917 115.206 32.1161 116.954 31.2672C120.4 29.6194 119.227 24.4512 115.406 24.5261C114.781 24.5261 113.982 24.7259 113.582 25.0005Z" fill="#9B99AB"/>
</svg>
