<svg width="188" height="56" viewBox="0 0 188 56" fill="none" xmlns="http://www.w3.org/2000/svg">
<g clip-path="url(#clip0_110_4512)">
<path d="M0.636719 55.9444H187.584V0H0.636719V55.9444Z" fill="#9B99AB"/>
<path d="M135.823 55.9932C134.94 55.646 132.494 54.4791 132.18 52.1664L127.632 56.0002L117.048 55.9932C116.001 55.7224 114.094 54.8472 113.495 52.0483L109.119 55.9932L99.8817 56.0071L95.9397 44.1584L91.0553 56.0002H82.2064L83.8745 52.0274C80.3214 54.7639 79.2219 55.7154 78.9003 56.0141L71.3829 56.0071C68.5554 54.7986 68.3534 51.9997 68.3534 51.9997C64.6882 54.7778 63.5513 55.7085 63.2072 56.0071L56.6472 56.0002C54.2312 54.9514 53.4682 52.1177 53.4682 52.1177C49.803 54.618 47.6712 56.0002 47.6712 56.0002H35.7556L42.8242 39.1022H36.526L29.6968 55.9932H20.9078L28.9712 35.1573H23.2116L14.6321 55.9932H5.83561L15.9336 31.2054H0.599609V24.0518H27.4678L25.9568 28.2467H40.5054L38.8598 32.5598H53.5356L46.8036 49.7008H53.6627L59.0184 37.3729C59.0184 37.3729 61.0754 32.5598 65.885 32.5598H84.413L77.8306 49.8258H84.6973L95.259 24.0518H103.622L97.1739 41.0678L106.786 32.5528H116.809L104.729 43.5264L106.509 49.9369L113.929 49.8744L121.334 32.4209H129.689L122.972 49.8258H132.584L137.371 38.1091H131.739L133.946 32.4347H139.294L142.996 24.0518H151.636L148.345 32.1917H153.431L151.374 37.991H145.876L141.351 49.7077H150.963L155.488 38.4841C155.488 38.4841 157.418 32.6917 163.043 32.5667H181.144L174.435 49.7008H187.6V55.9932H170.037C170.037 55.9932 165.923 55.5001 165.227 52.0483L160.963 55.9932H154.942C154.942 55.9932 151.09 55.5001 150.544 52.0483L146.153 55.9932H135.823ZM165.309 49.9508L169.962 39.1022H164.053L159.4 49.9508H165.309ZM68.72 49.9508L73.38 39.1022H67.4932L62.8182 49.9508H68.72Z" fill="white"/>
<path d="M122 30.4213L124.468 24.0108H132.846L130.378 30.4213H122ZM177.838 20.566H176.492V19.3853H177.95C178.235 19.3853 178.721 19.4269 178.721 19.9687C178.721 20.4826 178.272 20.566 177.838 20.566ZM179.282 22.0314L179.244 21.4063C179.222 20.9271 178.983 20.8368 178.743 20.7535C179.005 20.6215 179.319 20.434 179.319 19.92C179.319 19.1838 178.609 18.9824 177.898 18.9824H175.916V22.462H176.492V20.9757H177.898C178.609 20.9757 178.683 21.3091 178.683 21.6008C178.683 21.7328 178.706 22.2537 178.781 22.469H179.506V22.3926C179.319 22.2953 179.282 22.2259 179.282 22.0314Z" fill="white"/>
<path d="M177.577 23.6423C176.739 23.6423 175.954 23.3367 175.355 22.788C174.757 22.2324 174.42 21.5031 174.42 20.7183C174.42 19.9335 174.757 19.1973 175.355 18.6486C175.954 18.093 176.739 17.7943 177.577 17.7943C178.415 17.7943 179.222 18.0999 179.806 18.6486C180.404 19.2042 180.741 19.9335 180.741 20.7183C180.733 22.3296 179.32 23.6423 177.577 23.6423ZM180.06 18.4124C179.387 17.7943 178.512 17.4609 177.569 17.4609C175.647 17.4609 174.076 18.9195 174.076 20.7113C174.076 21.5795 174.428 22.399 175.108 23.0102C175.759 23.6214 176.649 23.9617 177.577 23.9617C178.512 23.9617 179.387 23.6214 180.06 23.0102C180.718 22.3921 181.07 21.5795 181.07 20.7113C181.07 19.8432 180.718 19.0236 180.06 18.4124Z" fill="white"/>
</g>
<defs>
<clipPath id="clip0_110_4512">
<rect width="187" height="56" fill="white" transform="translate(0.599609)"/>
</clipPath>
</defs>
</svg>
