<svg width="30" height="30" viewBox="0 0 30 30" fill="none" xmlns="http://www.w3.org/2000/svg">
<path d="M7.12614 13.9721C7.04327 13.438 7.00027 12.8908 7.00027 12.3337C7.00027 6.44262 11.8073 1.66699 17.7371 1.66699C23.6669 1.66699 28.474 6.44262 28.474 12.3337C28.474 13.6644 28.2287 14.9383 27.7805 16.113C27.6875 16.357 27.6409 16.479 27.6198 16.5742C27.5989 16.6686 27.5908 16.735 27.5885 16.8316C27.5862 16.9291 27.5994 17.0366 27.6259 17.2514L28.1627 21.6117C28.2208 22.0837 28.2498 22.3197 28.1713 22.4913C28.1025 22.6416 27.9803 22.761 27.8284 22.8263C27.6551 22.9009 27.4198 22.8664 26.9493 22.7974L22.7023 22.1749C22.4805 22.1424 22.3696 22.1261 22.2686 22.1267C22.1687 22.1273 22.0996 22.1346 22.0019 22.1552C21.903 22.176 21.7768 22.2232 21.5243 22.3178C20.3466 22.759 19.0702 23.0003 17.7371 23.0003C17.1795 23.0003 16.6319 22.9581 16.0972 22.8767M9.17576 28.3337C13.129 28.3337 16.3337 25.0504 16.3337 21.0003C16.3337 16.9502 13.129 13.667 9.17576 13.667C5.22257 13.667 2.01787 16.9502 2.01787 21.0003C2.01787 21.8144 2.14736 22.5976 2.38639 23.3293C2.48743 23.6386 2.53795 23.7933 2.55453 23.8989C2.57184 24.0092 2.57488 24.0712 2.56843 24.1826C2.56226 24.2894 2.53554 24.4101 2.48212 24.6514L1.66699 28.3337L5.66006 27.7883C5.87801 27.7586 5.98699 27.7437 6.08215 27.7443C6.18235 27.745 6.23553 27.7504 6.3338 27.77C6.42713 27.7886 6.56587 27.8376 6.84335 27.9355C7.57445 28.1936 8.35914 28.3337 9.17576 28.3337Z" stroke="#43A548" stroke-width="2" stroke-linecap="round" stroke-linejoin="round"/>
</svg>
