<svg width="155" height="24" viewBox="0 0 155 24" fill="none" xmlns="http://www.w3.org/2000/svg">
<path d="M26.5997 8.85553C26.0322 10.4596 22.457 12.1349 13.6748 10.1454L14.8178 15.3413C23.5995 16.94 28.8047 15.6249 31.778 12.4981C33.9799 10.1806 34.4115 7.1831 32.6019 4.88923C30.688 2.461 26.4484 0.700195 21.0947 0.700195C13.4368 0.700195 7.97949 2.92291 4.94899 11.2637L0.875 22.4775H8.00231L12.0563 11.136C13.7196 6.47174 17.2151 5.6995 21.0947 5.6995C25.1633 5.6995 27.1269 7.37732 26.5997 8.85553ZM97.1706 13.777L96.8947 13.6583C98.4898 13.0214 100.221 12.6767 101.941 12.6767C102.984 12.6767 105.306 12.8539 106.285 13.4148C106.523 13.5486 106.741 13.7598 106.624 14.0218C106.191 14.9965 99.8341 14.942 97.1706 13.777ZM110.19 11.1548C108.506 10.2526 105.728 9.53349 103.012 9.42251C97.3778 9.19053 90.9535 11.1155 89.6743 15.6662C88.9344 18.2838 91.4669 21.8193 98.061 22.8222C101.36 23.3296 106.602 23.2014 110.375 21.9524L111.784 18.067C104.133 20.7005 94.1337 19.9359 94.4681 15.991C98.1698 18.3704 103.571 18.1443 107.57 17.4884C114.497 16.3558 114.396 13.406 110.19 11.1548ZM121.869 13.777L121.597 13.6583C123.189 13.0214 124.922 12.6767 126.64 12.6767C127.687 12.6767 130.004 12.8539 130.984 13.4148C131.222 13.5486 131.439 13.7598 131.322 14.0218C130.891 14.9965 124.535 14.942 121.869 13.777ZM134.889 11.1548C133.206 10.2526 130.427 9.53349 127.71 9.42251C122.079 9.19053 115.655 11.1155 114.373 15.6662C113.635 18.2838 116.169 21.8193 122.76 22.8222C126.058 23.3296 131.303 23.2014 135.074 21.9524L136.485 18.067C128.834 20.7005 118.835 19.9359 119.169 15.991C122.872 18.3704 128.272 18.1443 132.27 17.4884C139.195 16.3558 139.097 13.406 134.889 11.1548ZM140.091 14.495L137.264 22.4803H143.789L145.964 16.3352C146.499 14.7768 146.952 13.6108 148.855 13.6108H153.439L154.725 9.93195H146.28C143.455 9.93169 141.178 11.3349 140.091 14.495ZM30.7886 22.4803H37.5445L42.1101 9.93169H35.3549L30.7886 22.4803ZM74.6231 15.7279C75.2517 14.0015 77.1505 13.2023 78.8135 13.2023C80.462 13.2023 82.0402 14.1754 81.4293 15.8563L79.0169 22.48H85.5428L87.9902 15.7515C89.2598 12.2577 86.5099 9.36368 80.3481 9.36368C73.4891 9.36368 69.6018 11.6087 68.1033 15.721L65.6452 22.4806H72.1666L74.6231 15.7279ZM54.4973 13.33C57.1336 13.4415 59.2583 14.7697 58.8798 16.4965C58.5167 18.161 55.9468 19.2942 53.2804 19.1796C50.6433 19.0699 48.5209 17.7358 48.8961 16.01C49.2626 14.3491 51.8304 13.2136 54.4973 13.33ZM55.4164 9.42868C48.6209 9.13992 42.5664 12.0498 41.7521 15.7711C40.9492 19.4327 45.5394 22.7911 52.3613 23.0799C59.1539 23.3697 65.2111 20.4603 66.0266 16.738C66.8272 13.0772 62.2367 9.71538 55.4164 9.42868Z" fill="#9B99AB"/>
</svg>
