<svg width="98" height="56" viewBox="0 0 98 56" fill="none" xmlns="http://www.w3.org/2000/svg">
<g clip-path="url(#clip0_110_4502)">
<path d="M69.6176 9.16925H65.5106V17.1512C65.5106 19.7529 68.3166 21.9757 71.7859 21.9757C75.2551 21.9757 78.2907 19.7276 78.2907 17.1512V9.16925H74.1837V16.3681C74.1837 17.5553 73.1634 18.5152 71.9134 18.5152C70.6379 18.5152 69.6176 17.5553 69.6176 16.3429V9.16925ZM4.46707 4.77414V21.3442H0.207031V1.36415H7.8853C11.227 1.36415 13.9565 4.04163 13.9565 7.30007C13.9565 10.0786 11.9923 12.4024 9.33933 13.0087L15.2575 21.3442H10.1811L5.92109 14.8021V10.0281H6.91595C8.49752 10.0281 9.77298 8.86614 9.77298 7.42636C9.77298 5.98659 8.57405 4.77414 6.99248 4.77414H4.46707ZM43.6747 21.3442V0.404297H39.6443V10.2807C38.5729 9.24503 37.2209 8.66407 35.6648 8.66407C32.3486 8.66407 29.6447 11.5689 29.6447 15.1809C29.6447 18.7678 32.3486 21.6978 35.6648 21.6978C37.2464 21.6978 38.7259 21.0916 39.6443 19.9802V21.3442H43.6747ZM36.8127 18.2878C35.1801 18.2878 33.8537 16.8481 33.8537 15.0799C33.8537 13.3118 35.1801 11.872 36.8127 11.872C38.4453 11.872 39.7718 13.3118 39.7718 15.0799C39.7463 16.8481 38.4198 18.2878 36.8127 18.2878ZM60.6128 10.4827C61.7097 9.47236 62.3985 8.10836 62.3985 6.61807C62.3985 5.25407 61.8628 4.01637 60.9444 3.03126C59.9751 1.99563 58.2915 1.36415 55.9957 1.36415H49.1337V21.3442H58.0109C61.4036 21.2937 64.1586 18.7425 64.1586 15.6104C64.1331 13.337 63.3168 11.7204 60.6128 10.4827ZM57.1946 17.8837H53.3427V4.95096H56.0467C57.2201 4.95096 58.215 5.83503 58.215 7.02222C58.215 8.2094 57.2201 9.16925 56.0467 9.16925H54.6182V12.7813H57.2456C58.6741 12.7813 59.7455 13.9432 59.7455 15.3578C59.6945 16.7723 58.7506 17.8079 57.1946 17.8837Z" fill="#9B99AB"/>
<path d="M18.8291 13.6907C18.8291 12.3519 19.926 11.2658 21.278 11.2658C22.63 11.2658 23.7269 12.3519 23.7269 13.6907H18.8291ZM27.7063 15.964C27.7318 15.6861 27.7574 15.4083 27.7574 15.1304C27.8084 10.8111 24.9513 8.46199 21.278 8.46199C17.6047 8.46199 14.6201 11.4426 14.6201 15.1304C14.6201 18.8183 17.6047 21.7989 21.278 21.7989C24.084 21.7989 26.2778 20.5359 27.4002 18.5657L24.1351 17.0754C23.7269 17.9595 22.7576 18.5909 21.6096 18.5909C20.1046 18.5909 18.8546 17.4543 18.8546 15.964H27.7063ZM80.1788 0.404297H84.2092V21.3442H80.1788V0.404297ZM87.0407 0.404297H91.0712V21.3442H87.0407V0.404297Z" fill="#9B99AB"/>
<path d="M36.3789 35.1865C36.3789 29.781 40.792 25.4111 46.251 25.4111C51.7099 25.4111 56.123 29.781 56.123 35.1865C56.123 40.5919 51.7099 44.9618 46.251 44.9618C40.792 44.9618 36.3789 40.5667 36.3789 35.1865Z" fill="#D2D1DB"/>
<path fill-rule="evenodd" clip-rule="evenodd" d="M38.3181 29.376C38.4711 29.4518 38.6242 29.5276 38.8027 29.6286C39.5425 30.1338 40.0272 30.5632 41.1496 31.4978C41.4812 31.8262 41.8638 32.3566 42.1444 32.685C42.7567 33.4428 43.1903 33.9732 43.2668 34.6047C43.4454 35.8677 43.624 36.5749 44.1086 37.8631C44.1597 37.9894 44.3637 38.1662 44.4913 38.3178C44.7974 38.6967 44.9249 39.3029 45.4861 39.6313C45.7923 39.8081 45.8433 39.8334 45.9453 39.9091C46.0984 40.0354 45.8433 40.4901 45.0525 40.3891C45.4606 40.5911 45.4096 41.0458 44.8229 41.0711C43.675 41.1216 42.9607 40.4648 42.8077 40.288C42.7311 40.2122 42.5016 40.5154 42.0934 40.6669C41.6853 40.869 41.1241 40.6669 40.6904 40.7427C40.2823 40.8185 39.7466 41.0711 39.3129 41.0963C38.5476 41.1216 38.4456 40.5911 38.4456 40.1365V39.9344C38.3691 40.2122 38.0885 40.6922 38.0885 40.6922C37.9864 40.9195 37.8334 41.1974 37.5528 41.2984L36.7365 41.3994C36.0988 41.6773 35.461 41.8794 34.7978 42.1067C34.4152 42.1825 33.9815 42.1067 33.7009 41.8794C33.4713 41.7025 33.3438 41.4752 33.2162 41.2479C33.0887 41.1974 32.9101 41.2479 32.7571 41.1974C32.6295 41.1721 32.553 41.0711 32.4765 40.9953L31.9153 40.0607C31.8642 39.9344 31.8642 39.7576 31.9153 39.6313C32.0173 39.4292 32.2469 39.3282 32.4765 39.3282C32.8846 39.3029 33.3438 39.1766 33.7519 39.3282C33.9305 39.1261 34.2111 39.1514 34.4662 39.1008C34.3641 38.9493 34.2111 38.8735 34.0835 38.7472C33.3438 38.924 32.5275 38.7977 31.8132 38.6714C31.15 38.5199 30.5888 38.8988 29.9255 38.7977L29.7215 39.2271C29.4153 39.5555 29.3898 40.1112 28.9307 40.3385C28.5991 40.4143 28.344 40.6417 28.0634 40.7932C27.5532 41.0711 26.8644 40.9448 26.3032 40.8437C26.0736 40.8185 25.9206 40.8437 25.7165 40.9195C25.538 41.0458 25.3339 41.2479 25.1298 41.3994C24.7982 41.5257 24.5176 41.8036 24.1605 41.8288C23.9564 41.8288 23.7523 41.7025 23.5482 41.7531C23.2931 42.0309 23.1656 42.4856 22.7574 42.6119C22.3493 42.7382 21.8391 42.6371 21.431 42.5361C21.3034 42.5866 21.2269 42.6877 21.0738 42.6624C20.7932 42.5866 20.5126 42.5108 20.2575 42.3593C20.1555 42.2582 20.13 42.1319 20.1045 42.0309C20.1045 41.8541 20.2575 41.7025 20.3341 41.551C20.3596 41.3742 20.3596 41.1216 20.4361 40.9448C20.5637 40.6669 20.8443 40.4901 21.1249 40.3638C21.1504 40.1617 21.2779 39.9849 21.4565 39.8839C21.7881 39.7071 22.1452 39.3029 22.5789 39.5302L23.038 39.9091C23.4462 39.7323 23.3442 39.3282 23.5482 38.9998C23.6503 38.7725 23.7778 38.5199 24.0329 38.5199C24.2115 38.4946 24.4155 38.5451 24.5941 38.5199C24.8492 38.4441 25.1298 38.3431 25.3084 38.141L25.2829 37.9894C25.0278 37.5095 24.9512 36.9285 24.9257 36.3476C24.4666 36.3981 23.9819 36.4739 23.4972 36.3728C22.783 36.2718 22.0942 35.7161 21.8136 35.0088C21.5075 34.3268 21.635 33.367 22.1197 32.786C22.5024 32.3314 22.936 31.9272 23.3952 31.5736C23.2421 31.5231 23.0636 31.5483 22.9105 31.4978C22.2473 31.3968 21.584 30.8158 21.431 30.1591C21.3289 29.7297 21.431 29.3255 21.635 28.9719C21.7116 28.8961 21.7881 28.8203 21.9156 28.8708C22.2473 28.9971 22.3493 29.174 22.6554 29.3255L22.834 29.4266C23.6758 29.7044 24.7982 29.7044 25.1298 30.74C25.3339 31.5483 24.8237 32.1546 24.237 32.6092C23.7778 32.9376 23.3187 33.3417 23.0891 33.8217C22.987 34.1753 23.038 34.5289 23.3442 34.7815C23.6503 35.0846 24.186 35.0846 24.5686 34.9331C25.2829 34.63 25.9461 34.1753 26.5838 33.6954C27.196 33.2407 27.9358 33.0639 28.7266 33.0386C29.0837 32.9628 29.3898 32.8113 29.6704 32.584C30.1551 32.1293 30.6653 31.7504 31.2775 31.5988C31.5581 31.5483 31.8387 31.5231 32.1193 31.4978C32.3489 31.3968 32.502 31.1189 32.6805 30.9926C33.5223 30.2601 34.6447 30.2854 35.5376 29.7044C36.0477 29.3255 36.6089 29.0729 37.2722 29.0982C37.5783 29.1234 37.8589 29.174 38.114 29.275L38.3181 29.376ZM39.1599 37.9642C38.5987 37.9894 38.2415 38.1157 37.8589 38.1662C37.8844 38.5199 38.0885 38.823 38.3691 39.2019C38.5221 38.6209 39.0068 38.3936 39.1599 37.9642ZM53.5215 38.0905C53.7766 38.4694 53.9297 38.8482 54.1593 39.2524C54.3889 38.823 54.5929 38.4188 54.797 38.1662C54.7715 38.141 54.1082 38.2168 53.5215 38.0905ZM54.0572 39.9597C54.0317 40.0354 53.9807 40.0607 53.8787 40.0607C53.9552 40.4143 53.7001 41.0711 53.0624 41.0963C52.6287 41.1216 51.9145 40.6922 51.5063 40.6669C51.0727 40.6417 50.2819 40.97 49.8227 40.288C49.2105 41.0205 48.4962 41.2226 47.884 41.1974C47.5269 41.1974 47.1442 40.9953 47.6799 40.5406C46.5065 40.9195 46.5065 40.1365 46.7106 39.9849C46.8381 39.8839 46.9912 39.8081 47.4248 39.3787C49.0574 37.6863 48.4452 34.7563 50.2309 32.8113C50.9196 32.0535 51.4808 31.6241 52.8838 30.639C53.3685 30.3106 53.8532 29.8307 54.3123 29.5023L54.3378 29.5528V29.5276C54.6184 29.3255 54.8735 29.1234 55.1796 29.0477C55.8174 28.9719 56.4041 29.174 56.8888 29.5023C57.1438 29.6791 57.3479 29.8812 57.552 30.1338C57.705 30.2854 57.9346 30.2854 58.1387 30.3611C58.7254 30.4622 59.2356 30.6895 59.7203 30.9926C60.0519 31.1947 60.3325 31.5483 60.7406 31.5988C61.2253 31.6746 61.659 31.8262 62.0926 32.0788C62.6028 32.4071 63.062 32.8113 63.6742 32.9123C64.8986 33.0386 65.919 33.7206 66.8884 34.4026C67.4496 34.731 68.1128 35.1099 68.8015 34.8825C69.0056 34.8068 69.1587 34.63 69.2097 34.4531C69.2607 33.9985 68.9801 33.6448 68.6995 33.3165C68.1128 32.6345 67.0924 32.0535 67.22 31.0684C67.3985 30.3359 68.2148 29.9065 68.8526 29.7044C69.2097 29.5781 69.6433 29.6286 69.9495 29.3255C70.1025 29.2245 70.179 28.8708 70.4341 28.9971C70.6382 29.1234 70.6637 29.376 70.6892 29.6034C70.7913 30.3106 70.6382 31.0179 69.975 31.422C69.6689 31.6241 69.3372 31.6999 68.9801 31.7757C69.5158 32.2051 70.0515 32.7355 70.3576 33.3417C70.5362 33.6954 70.6382 33.9985 70.6637 34.4026C70.6382 35.1604 70.179 35.8171 69.5158 36.196C69.1332 36.3981 68.6995 36.4739 68.2403 36.4739C68.0618 36.4739 67.9087 36.4234 67.7557 36.4234C67.8322 36.777 67.8322 37.2569 67.7557 37.6611C67.7302 37.8631 67.6026 38.0905 67.6026 38.3431C67.7047 38.4694 67.8577 38.4694 67.9853 38.4694C68.3169 38.4694 68.725 38.4441 68.9036 38.7977C69.0566 39.1261 69.1332 39.505 69.2607 39.8334C69.3117 39.8839 69.3372 40.0102 69.4138 39.9849C69.6433 39.7828 69.8729 39.505 70.2046 39.5808C70.5107 39.7828 70.8168 40.0102 71.1229 40.2375C71.1994 40.3133 71.2249 40.4143 71.2504 40.5406C71.5055 40.6417 71.8371 40.8185 71.9137 41.1216C71.9647 41.3237 71.9392 41.5257 71.9902 41.7025C72.0667 41.9046 72.2708 42.1572 72.1177 42.4098L72.0157 42.4856L71.0464 42.7887C70.9698 42.7887 70.8933 42.7382 70.8168 42.6624C70.3066 42.6371 69.6944 42.7887 69.2862 42.4351C69.1077 42.2835 68.9801 42.1067 68.8526 41.9046C68.5465 42.0562 68.1128 42.1572 67.8067 41.9551C67.169 41.4752 66.5312 40.9953 65.6639 41.0205C65.2813 41.0963 64.8221 41.1974 64.4395 41.0458C64.0823 40.7932 63.6742 40.6669 63.3936 40.288C62.9855 39.8586 62.9855 39.3534 62.8324 38.823C62.2712 38.9493 61.659 38.8735 61.0978 38.8482C60.6386 38.823 60.2049 38.8988 59.7713 38.9998C59.2356 39.1008 58.6489 39.1514 58.0877 39.1261L57.8071 39.3282C57.9346 39.3534 58.0622 39.3534 58.1642 39.4545L58.2663 39.5555C58.7254 39.606 59.2611 39.5302 59.6948 39.6313C59.7968 39.6565 59.8988 39.7576 59.9499 39.8586C60.0009 39.9849 60.0009 40.1365 59.9244 40.2375C59.6948 40.5406 59.5672 40.8942 59.2611 41.1468C59.1846 41.2479 58.955 41.1216 58.9295 41.2984C58.8275 41.7531 58.3938 42.1319 57.9601 42.233C57.7816 42.2582 57.5775 42.233 57.4244 42.1825C56.8888 42.0056 56.3531 41.8541 55.8174 41.7025C55.6388 41.652 55.4857 41.4752 55.3327 41.3742C55.1031 41.3742 54.7715 41.4499 54.6184 41.2479C54.5419 41.1974 54.4654 41.0205 54.4399 40.9448C54.2613 40.7174 54.1338 40.3133 54.0572 39.9597Z" fill="#D2D1DB"/>
<path fill-rule="evenodd" clip-rule="evenodd" d="M38.0621 32.5593C38.2152 32.9382 38.2152 33.4434 38.1132 33.8475C38.0877 33.8728 38.0621 33.8728 38.0366 33.8475C37.9601 33.4939 37.8836 33.1402 37.756 32.7866C37.6795 32.5845 37.4244 32.4077 37.5264 32.1804C37.5775 32.1299 37.6795 32.1299 37.756 32.1551C37.8836 32.2814 37.9601 32.4077 38.0621 32.5593ZM42.1436 36.0956C42.4242 36.4239 42.6283 36.7776 42.5263 37.207C42.4752 37.2828 42.5007 37.4343 42.3732 37.4596C42.3222 37.4848 42.2712 37.4343 42.2712 37.3838C42.2456 37.1565 42.2457 36.9039 42.1181 36.7271C41.965 36.5755 41.7865 36.2724 41.5314 36.2724C41.3528 36.3229 41.2253 36.525 41.1232 36.6513C41.1232 36.6765 41.0977 36.6765 41.0722 36.6513C40.9702 36.3987 41.1743 36.1966 41.2508 35.9945C41.4038 35.843 41.3783 35.4136 41.71 35.5399C41.9395 35.6914 41.9906 35.944 42.1436 36.0956ZM41.6079 39.1014C41.6334 39.253 41.6334 39.4803 41.4804 39.5813C41.3273 39.6319 41.1232 39.6571 40.9447 39.6319C40.8937 39.6066 40.8426 39.5813 40.8682 39.5308C40.9447 39.3035 41.1743 39.0509 41.4294 39.0004C41.4804 39.0004 41.5824 39.0004 41.6079 39.1014ZM22.9862 29.8818C23.5984 30.0334 24.2617 30.0334 24.7208 30.5133C24.9759 30.8164 25.0014 31.3468 24.7974 31.6499C24.4402 32.2562 23.726 32.5593 23.2923 33.0897C22.8587 33.4434 22.7056 33.9991 22.8332 34.5548C22.9862 35.0347 23.4709 35.3631 23.9556 35.3883C24.7208 35.4136 25.282 35.0347 25.8943 34.6811C26.5065 34.2516 27.0677 33.6959 27.7564 33.5191C28.2156 33.3676 28.7258 33.4434 29.1849 33.2665C29.6696 33.1655 30.0523 32.7614 30.4349 32.4077C30.8685 32.0541 31.3787 31.852 31.9399 31.8773C32.4501 31.9531 32.7307 31.4984 33.0878 31.1953C33.6746 30.6648 34.4398 30.6143 35.1286 30.3112C35.6133 30.1597 35.9959 29.806 36.4551 29.5787C36.8887 29.4019 37.4754 29.3514 37.9091 29.5282C38.1897 29.6545 38.4958 29.7808 38.7509 29.9828L40.8171 31.7005C40.8426 31.7762 40.9192 31.8268 40.9702 31.852C41.5569 32.5593 42.1691 33.2413 42.6538 34.0243C42.8069 34.3022 42.8834 34.58 42.9599 34.8831C43.0619 36.0451 43.3681 37.0554 43.7507 38.0658C43.8527 38.2173 44.0568 38.3436 44.1588 38.4952C44.4905 38.9499 44.6945 39.5308 45.2302 39.8339L45.5363 39.9855C45.5618 40.0107 45.5618 40.0613 45.5363 40.0865L45.4853 40.137C44.8476 40.2381 44.3629 39.8592 44.0313 39.4045C43.8272 39.0004 43.5466 38.571 43.0875 38.3942C43.0619 38.3942 43.0364 38.4194 43.0364 38.4194C43.0875 38.571 43.2405 38.672 43.2915 38.7983C43.4701 39.0762 43.6231 39.3793 43.6997 39.6824C43.8017 40.0108 44.1588 40.2381 44.4394 40.4149L44.8476 40.617C44.8986 40.6422 44.9241 40.718 44.8731 40.7685L44.8221 40.7938C44.1333 40.819 43.5211 40.5917 43.0364 40.0865C42.9344 39.9602 42.7813 39.8592 42.6028 39.8592C42.2967 40.137 41.9906 40.3896 41.5824 40.4149C41.1488 40.3391 40.6896 40.3391 40.307 40.4907C39.9498 40.617 39.5927 40.7685 39.2101 40.7685C39.0315 40.7685 38.8274 40.6928 38.7509 40.5159C38.7509 40.2886 38.5978 40.036 38.7254 39.8087L38.9805 39.4298C38.9805 39.3793 38.955 39.3288 38.9039 39.3288C38.8019 39.3035 38.6233 39.4803 38.5723 39.3035C38.5978 38.9246 38.9805 38.672 39.2356 38.4194C39.2866 38.1163 39.4141 37.8385 39.6437 37.5859C39.6437 37.5606 39.6182 37.5101 39.5672 37.5101C39.2356 37.5606 38.9039 37.6364 38.5468 37.6364C38.2662 37.7879 37.9091 37.889 37.5775 37.7879C37.5009 37.7374 37.5264 37.6616 37.552 37.6111C37.9091 37.1312 38.0366 36.525 37.9346 35.944C37.9091 35.9188 37.9091 35.8682 37.8581 35.8682C37.8071 35.8682 37.8071 35.9188 37.7815 35.944C37.705 36.4997 37.5265 36.9291 37.2203 37.4091C36.9908 37.6364 36.6336 37.6364 36.3275 37.7122C36.251 37.7374 36.1745 37.8132 36.1745 37.889C36.1745 38.091 36.302 38.2173 36.3785 38.3942L37.0418 39.6066C37.0673 39.935 36.9142 40.2633 36.8377 40.5665C36.8632 40.617 36.9142 40.5917 36.9652 40.5665C37.1948 40.3644 37.3479 40.0865 37.4499 39.7834C37.4754 39.6571 37.4244 39.5056 37.3734 39.4045L36.6846 38.0405C36.7357 37.9648 36.8377 37.9648 36.9142 37.9395C37.0673 37.9395 37.2203 38.0153 37.3734 38.0658C37.5264 38.4699 37.705 38.8993 37.9856 39.253C38.0366 39.4803 38.1132 39.7834 37.9601 39.9602C37.8071 40.2633 37.654 40.5159 37.4499 40.7938C37.2714 40.9706 37.0163 40.9453 36.7612 40.9706H36.6846C36.0724 41.299 35.4347 41.501 34.7715 41.7031C34.4909 41.8294 34.1592 41.7284 33.9297 41.5516C33.7001 41.3747 33.598 41.1222 33.445 40.8948C33.2664 40.6675 32.9858 40.8696 32.7817 40.7433C32.6032 40.4654 32.4246 40.1876 32.2716 39.8845C32.2716 39.8087 32.2716 39.7329 32.3481 39.6824C32.5777 39.6066 32.8328 39.6066 33.0878 39.5813C33.3174 39.5561 33.5725 39.6066 33.7256 39.7582C34.0317 40.1118 34.1592 40.5917 34.6184 40.819C34.9755 40.8443 35.2816 40.7433 35.5877 40.5917C35.7663 40.4907 35.9704 40.3391 35.9704 40.1118C35.9449 39.6571 35.6388 39.3035 35.2561 39.0509C34.8735 38.8488 34.4653 38.571 34.1847 38.2173C34.0317 38.0153 34.0062 37.7879 33.9297 37.5859C33.9041 37.5353 33.8021 37.5353 33.7766 37.5606C33.6235 37.6869 33.7511 37.9142 33.7511 38.0658C33.7766 38.1668 33.8276 38.2931 33.7766 38.3689C33.547 38.5457 33.2409 38.4447 32.9603 38.4699C32.3991 38.4447 31.8634 38.2173 31.2767 38.2679C30.7155 38.2931 29.9502 38.672 29.5421 38.1163C29.338 37.5859 29.389 36.9544 29.4911 36.4239C29.4911 36.3734 29.44 36.3229 29.389 36.3229C29.338 36.2976 29.287 36.3229 29.2615 36.3734C29.1084 36.9039 29.0829 37.4848 28.9554 38.0405C28.7513 38.5205 28.3942 39.0256 27.9095 39.2782C27.4758 39.5056 26.9656 39.5813 26.4299 39.6319C25.4606 39.6571 24.5678 39.8339 23.9556 40.6675C23.9045 40.7433 23.828 40.819 23.8535 40.9201C23.879 40.9453 23.9556 40.9706 23.9811 40.9453C24.6443 40.2128 25.4861 39.9097 26.4555 39.9602C27.3738 39.9602 28.2921 39.8087 28.8788 39.0256C29.0319 38.8488 29.1339 38.672 29.2615 38.4699C29.3635 38.4699 29.44 38.5962 29.5166 38.6468C29.5421 38.9246 29.3125 39.1014 29.2105 39.3288C29.0829 39.5813 28.9554 39.8845 28.7003 40.036C28.3942 40.1118 28.1391 40.3139 27.8585 40.4654C27.5779 40.5917 27.2207 40.6422 26.8891 40.5665C26.481 40.4907 25.9198 40.3896 25.5116 40.5665C25.3075 40.6927 25.129 40.9201 24.9249 41.0464C24.6443 41.1727 24.3892 41.4 24.0576 41.3747C23.828 41.3242 23.5474 41.1727 23.3433 41.3747C23.0882 41.6021 23.0372 42.0062 22.7056 42.1578C22.323 42.3599 21.9148 42.1578 21.5322 42.1325C21.5832 41.7536 21.6342 41.4 21.8893 41.1222C22.0424 41.0969 22.1699 41.0716 22.2975 40.9706C22.4505 40.8443 22.5526 40.6675 22.6546 40.4907C22.9862 40.2886 23.3688 40.137 23.5729 39.7834C23.726 39.455 23.726 39.1519 23.9811 38.8488L24.1086 38.7983L24.7974 38.7478C25.078 38.6215 25.3331 38.4952 25.5881 38.2931C25.6647 38.2173 25.6902 38.091 25.6647 37.9648C25.5371 37.6364 25.4351 37.4091 25.3586 37.0554C25.282 36.7018 25.3331 36.3482 25.282 35.944C25.2565 35.9188 25.231 35.843 25.18 35.843C24.7208 35.944 24.2872 36.0703 23.777 35.9945C23.0882 35.9188 22.374 35.4641 22.1189 34.7821C21.8893 34.2011 21.9403 33.3676 22.374 32.8877C22.7821 32.3825 23.2923 32.0036 23.8025 31.5742C23.879 31.5237 23.879 31.4226 23.9045 31.3468C23.9045 31.2458 23.8025 31.17 23.726 31.1195C23.4199 31.0437 23.0627 31.1448 22.7566 31.0185C22.2209 30.8417 21.8128 30.3365 21.7363 29.7808C21.7107 29.5282 21.7618 29.3261 21.8893 29.124C22.2975 29.4777 22.6036 29.7808 22.9862 29.8818ZM21.4557 41.1727V41.2485C21.3281 41.5516 21.2516 41.9052 21.1495 42.2588C20.92 42.2336 20.7159 42.1578 20.5373 42.082C20.4863 42.0315 20.5373 41.981 20.5373 41.9305C20.7669 41.7284 20.6904 41.4758 20.7414 41.1979C20.7669 41.0464 20.92 40.9201 21.073 40.8443C21.2516 40.8696 21.3536 41.0464 21.4557 41.1727ZM22.5781 40.1118C22.4505 40.3644 22.2719 40.6675 21.9913 40.819C21.8893 40.8443 21.7618 40.8443 21.6597 40.7938C21.6087 40.7433 21.5067 40.6928 21.5067 40.5917C21.5322 40.4907 21.4812 40.3644 21.5832 40.3139C21.7873 40.1876 21.9913 40.0613 22.1954 39.8845C22.2464 39.8592 22.3485 39.8339 22.374 39.8845C22.476 39.9602 22.5525 40.0107 22.5781 40.1118ZM35.3582 40.0108C35.3837 40.1118 35.5367 40.2381 35.4347 40.3391C35.2306 40.4907 35.001 40.5917 34.7204 40.5665C34.5164 40.4149 34.5419 40.137 34.3633 39.935C34.3123 39.7834 34.0827 39.7834 34.1337 39.6319L34.2103 39.5813C34.4909 39.5813 34.7715 39.5813 35.0521 39.5308C35.3327 39.5056 35.2561 39.8339 35.3582 40.0108ZM51.48 35.8935C51.633 36.0956 51.7606 36.2976 51.8626 36.5502C51.8881 36.6008 51.8626 36.6513 51.8371 36.7018C51.8116 36.7523 51.7606 36.8028 51.6841 36.7523C51.5055 36.7018 51.531 36.4239 51.3014 36.4492C51.1484 36.4492 51.0463 36.5755 50.9188 36.6513C50.6892 36.8533 50.3831 37.0554 50.3321 37.3585C50.281 37.4596 50.3066 37.6364 50.2045 37.6869C50.1535 37.7122 50.077 37.6616 50.077 37.6111C50.0515 37.207 50.179 36.8281 50.4596 36.5502C50.7402 36.3229 50.9443 35.9945 51.1739 35.7167C51.3269 35.6914 51.429 35.7925 51.48 35.8935ZM51.582 39.253C51.633 39.354 51.7351 39.4803 51.6585 39.6066C51.5565 39.6824 51.3779 39.6319 51.2504 39.6319C51.0973 39.5561 51.0463 39.354 51.0463 39.1772C51.0463 39.1267 51.0463 39.1014 51.0973 39.0509C51.2759 39.0509 51.4545 39.1014 51.582 39.253ZM55.4084 31.5236C55.4849 31.6247 55.4084 31.7257 55.3574 31.8015C55.0002 32.1299 54.5666 32.4835 54.3115 32.8877C54.2095 33.0139 54.1329 33.1655 54.0819 33.3171C54.0819 33.3423 54.0564 33.3423 54.0309 33.3423C53.9544 33.1402 54.0564 32.9129 54.1074 32.7108C54.286 32.2309 54.6941 31.7762 55.1278 31.4479C55.1788 31.4226 55.3574 31.3974 55.4084 31.5236ZM56.8624 29.9071C57.143 30.0839 57.2451 30.4628 57.5767 30.5385C58.1379 30.6648 58.6991 30.7911 59.2093 31.0437C59.5664 31.2205 59.898 31.4731 60.2296 31.751C60.5357 31.9025 60.9184 31.9025 61.25 32.0036C61.7347 32.1299 62.1173 32.4835 62.551 32.7614C63.1122 33.1908 63.903 33.1402 64.5407 33.4181C65.5611 33.7465 66.3773 34.5295 67.3212 34.9842C67.8059 35.2368 68.5456 35.3378 69.0303 35.0599C69.3619 34.8326 69.566 34.5295 69.4895 34.1001C69.3109 33.0645 68.163 32.534 67.6273 31.6752C67.5253 31.4731 67.4487 31.1953 67.4997 30.9679C67.7038 30.4628 68.2395 30.1849 68.6987 30.0081C69.0558 29.8313 69.515 29.8818 69.8466 29.6797C69.9741 29.6039 70.0762 29.5029 70.1527 29.4271C70.2292 29.4271 70.2292 29.5029 70.2547 29.5534C70.3568 30.1597 70.2547 30.7911 69.7191 31.1448C69.515 31.2963 69.2599 31.3468 69.0303 31.3974C68.8262 31.4731 68.4181 31.3216 68.4436 31.6752C68.4946 31.852 68.6477 31.9531 68.7752 32.0794C69.4895 32.6603 70.1527 33.4181 70.2292 34.3274C70.2547 35.0347 69.7701 35.6409 69.1578 35.944C68.6987 36.1208 68.1375 36.1966 67.6528 36.0703C67.5253 36.0451 67.3212 35.9188 67.2192 36.0956C67.1936 36.2976 67.3212 36.4492 67.3212 36.626C67.3722 36.9544 67.3722 37.3838 67.2702 37.7122C67.2192 37.9648 66.9641 38.2679 67.1936 38.5205C67.4232 38.8741 67.8824 38.7731 68.265 38.8236C68.4691 38.8488 68.5456 39.0762 68.5966 39.2277C68.6732 39.4298 68.6732 39.6571 68.7497 39.8087C68.7497 40.1876 69.1834 40.3391 69.3874 40.5917C69.6425 40.8696 69.8721 41.3495 70.3058 41.3242C70.4588 41.6273 70.5353 41.9052 70.5864 42.2588L70.5354 42.3093C70.1782 42.3093 69.6935 42.4104 69.4384 42.1578C69.1323 41.9557 69.0303 41.4 68.5711 41.5516C68.3671 41.7031 68.0865 41.7536 67.8569 41.6526C67.6273 41.5768 67.4742 41.3747 67.2702 41.2485C66.6579 40.7938 65.8417 40.5665 65.0509 40.7433C64.5917 40.8696 64.2346 40.5412 63.8774 40.3391C63.3928 40.137 63.2652 39.6319 63.1632 39.2025L63.0867 38.672C63.0867 38.6215 63.1377 38.571 63.1887 38.5457H63.2652C63.5458 39.1772 64.0815 39.8845 64.7703 40.1118C65.408 40.3644 65.9947 40.036 66.6835 40.1623C67.3212 40.2381 67.8314 40.6422 68.316 41.0211C68.3671 41.0211 68.3926 40.9959 68.4181 40.9453V40.8948C67.8314 40.1623 67.0151 39.7834 66.0712 39.8592C65.2805 40.0107 64.5152 39.7582 64.056 39.1014C63.8009 38.7225 63.6224 38.3184 63.5458 37.889C63.4693 37.3838 63.3673 36.8281 63.1887 36.3734C63.1377 36.3482 63.0867 36.2976 63.0356 36.3229L62.9846 36.3987C63.0612 36.8786 63.2142 37.4596 63.0356 37.9648C62.9081 38.3689 62.5 38.5205 62.1173 38.5457C61.7347 38.571 61.3775 38.4952 60.9694 38.4952C60.0511 38.4699 59.2348 38.8236 58.2909 38.7478C58.3675 38.5205 58.5205 38.2931 58.444 38.0405C58.4185 37.99 58.3419 37.99 58.2909 37.99C58.1124 38.0911 58.1379 38.3184 58.0358 38.4699C57.8318 38.7983 57.4491 39.1014 57.0665 39.1772C56.7859 39.3793 56.5308 39.6571 56.3012 39.9097C56.2247 39.9855 56.2247 40.137 56.2502 40.2381C56.4288 40.6927 56.9645 40.7433 57.3726 40.8696C57.5767 40.8948 57.7552 40.819 57.8573 40.6422C58.0358 40.3644 58.0613 39.9097 58.4695 39.8592H59.3623C59.4388 39.8845 59.4899 39.935 59.5409 40.0108L59.5154 40.137C59.3113 40.3644 59.2348 40.6928 58.9797 40.8443C58.8266 40.8948 58.6481 40.8443 58.546 40.9706C58.495 41.2737 58.4185 41.6021 58.1124 41.7536C57.8828 41.9557 57.5512 41.8547 57.2961 41.7789C56.8114 41.6021 56.3267 41.501 55.8421 41.3495C55.638 41.299 55.5615 41.0464 55.3319 40.9959C55.1278 40.9453 54.8982 41.0969 54.7196 40.9201C54.6176 40.6927 54.5666 40.5412 54.5156 40.2886C54.439 40.137 54.388 39.9602 54.3625 39.7834C54.337 39.6319 54.3625 39.5308 54.4135 39.4045L55.0768 38.2173C55.1278 38.1416 55.1788 38.0658 55.2553 38.0405C55.4084 38.0658 55.587 38.1416 55.74 38.2173L55.7145 38.2931L55.0258 39.3288C54.8727 39.6571 55.0258 40.036 55.1788 40.3139C55.2043 40.3391 55.2298 40.3896 55.2553 40.3644C55.2298 40.1623 55.2043 39.9602 55.2553 39.7329C55.3064 39.5308 55.4339 39.354 55.5359 39.1772L56.0716 38.3942C56.1227 38.2679 56.1227 38.0658 56.0206 37.9395C55.791 37.7122 55.4594 37.6364 55.2553 37.3333C54.8217 36.7523 54.7707 36.0703 54.7196 35.3378C54.7196 35.2873 54.6686 35.2115 54.5921 35.1862C54.5411 35.161 54.4901 35.2368 54.4646 35.262C54.337 35.7419 54.4135 36.3229 54.5411 36.7523C54.6176 37.0807 54.7707 37.409 54.9237 37.7122C54.9492 37.7627 54.8982 37.8385 54.8472 37.8637C54.4901 37.889 54.1329 37.8637 53.8013 37.8132C53.3422 37.7374 53.0105 37.3838 52.6279 37.1059C52.5769 37.0807 52.5514 37.1312 52.5259 37.1565C52.6279 37.6616 53.1891 37.9648 53.3677 38.4194C53.4697 38.7983 53.8523 39.0762 53.9289 39.4803C53.9289 39.5308 53.8778 39.6066 53.8268 39.6319C53.6993 39.6571 53.5717 39.5813 53.4442 39.6571C53.4187 39.8845 53.5717 40.1118 53.4697 40.3139C53.3422 40.5159 53.1636 40.7433 52.934 40.7433C52.4748 40.5917 52.0157 40.3896 51.5565 40.2633C51.2249 40.2381 50.8933 40.2886 50.5872 40.3139C50.281 40.2633 50.077 39.9855 49.8474 39.8339C49.7709 39.8087 49.6943 39.8087 49.6433 39.8592C49.1331 40.3644 48.5719 40.9201 47.8067 40.8948C47.7556 40.8948 47.7301 40.8443 47.7301 40.7938V40.7433C48.0617 40.4402 48.4699 40.137 48.6229 39.7076C48.725 39.354 49.0311 39.1014 49.1586 38.773C49.1842 38.7225 49.1331 38.6973 49.0821 38.672L49.0056 38.7225C48.6229 39.1014 48.3424 39.5308 48.0617 39.935C47.7811 40.2128 47.373 40.3896 46.9393 40.2886C46.8883 40.2633 46.8883 40.1876 46.9138 40.137C48.4954 39.1772 48.674 37.4596 49.1076 35.8935C49.4137 34.8579 49.6433 33.797 50.4596 32.9634C51.6841 31.6247 53.2146 30.8417 54.5666 29.6797C54.7707 29.5029 54.9747 29.3261 55.2298 29.3261C55.8931 29.2756 56.4033 29.5282 56.8624 29.9071ZM71.4282 41.0716C71.5557 41.2485 71.5047 41.5263 71.5557 41.7284C71.5812 41.8799 71.7853 42.0062 71.6833 42.1578L71.1221 42.3346C71.02 42.3346 71.071 42.2083 71.02 42.1578C70.969 41.8294 70.8925 41.6021 70.7904 41.299C70.7649 41.1222 70.9435 40.9959 71.071 40.8948C71.1986 40.8443 71.3006 40.9959 71.4282 41.0716ZM70.1272 39.935C70.3313 40.1118 70.6119 40.2381 70.7649 40.4654C70.7904 40.5665 70.7139 40.6675 70.6629 40.7433C70.5864 40.819 70.4843 40.8696 70.3568 40.8696C70.2292 40.8696 70.1272 40.7938 70.0507 40.6927C69.9231 40.4907 69.7446 40.3139 69.6935 40.1118C69.7701 39.9855 69.9486 39.7834 70.1272 39.935ZM57.8318 39.7329C57.8063 39.9855 57.7297 40.2128 57.6277 40.4402C57.5512 40.5917 57.3216 40.5412 57.1685 40.5159C57.0155 40.4654 56.7604 40.4402 56.7349 40.2128C56.7094 40.0108 56.8114 39.8087 56.9134 39.6571C57.143 39.6319 57.4236 39.6824 57.6532 39.6319C57.7552 39.6319 57.8318 39.6571 57.8318 39.7329Z" fill="#9B99AB"/>
<path d="M5.30859 55.4693H8.85437V54.7368H6.12489V52.2613H8.75234V51.5288H6.12489V49.7102H8.85437V48.9776H5.30859V55.4693ZM12.3236 55.4693H13.1399V50.6195L18.0887 55.7471V48.9776H17.2724V53.7769L12.3236 48.6493V55.4693ZM21.609 55.4693H25.1292V54.7368H22.4253V52.2613H25.0527V51.5288H22.4253V49.7102H25.1292V48.9776H21.609V55.4693ZM30.4862 52.6402C31.43 52.5392 32.0677 51.7562 32.0677 50.8216C32.0677 50.1901 31.7616 49.5839 31.2004 49.2555C30.6902 48.9524 30.0525 48.9524 29.4658 48.9524H28.4709V55.4693H29.2872V52.716H29.6189L31.5576 55.4693H32.5524L30.4862 52.6402ZM29.2872 49.6849H29.5168C30.3331 49.6849 31.3025 49.8365 31.3025 50.8468C31.3025 51.8825 30.3841 52.034 29.5678 52.034H29.3127V49.6849H29.2872ZM38.445 52.1856V52.9181H40.1542C40.1287 53.979 39.0318 54.8378 38.0114 54.8378C36.5829 54.8378 35.4605 53.5496 35.4605 52.1856C35.4605 50.7205 36.6084 49.5334 38.0879 49.5334C38.9042 49.5334 39.695 49.9628 40.1542 50.5942L40.7409 50.0385C40.1031 49.2302 39.0828 48.7756 38.0624 48.7756C36.1747 48.7756 34.6442 50.3164 34.6442 52.1856C34.6442 53.979 36.1237 55.5703 37.9604 55.5703C39.797 55.5703 41.0725 54.2063 41.0725 52.4129V52.1603H38.445V52.1856ZM45.5621 52.6402V55.4693H46.3784V52.6402L48.5212 48.9776H47.5773L45.9703 51.7562L44.3377 48.9776H43.3938L45.5621 52.6402ZM54.1587 55.4693H55.4852C57.5514 55.4693 59.2095 54.4084 59.2095 52.1856C59.2095 50.0133 57.5259 48.9524 55.5107 48.9524H54.1587V55.4693ZM54.975 49.7102H55.2556C56.9392 49.7102 58.3677 50.3164 58.3677 52.2361C58.3677 54.1305 56.9137 54.7368 55.2556 54.7368H54.975V49.7102ZM64.3369 52.6402C65.2807 52.5392 65.9185 51.7562 65.9185 50.8216C65.9185 50.1901 65.6123 49.5839 65.0511 49.2555C64.541 48.9524 63.9032 48.9524 63.3165 48.9524H62.3217V55.4693H63.1379V52.716H63.4696L65.4083 55.4693H66.4031L64.3369 52.6402ZM63.1379 49.6849H63.3675C64.1838 49.6849 65.1532 49.8365 65.1532 50.8468C65.1532 51.8825 64.2348 52.034 63.4186 52.034H63.1635V49.6849H63.1379ZM68.9796 48.9776H69.7958V55.4945H68.9796V48.9776ZM73.0865 55.4693H73.9028V50.6195L78.8261 55.7471V48.9776H78.0098V53.7769L73.0865 48.6493V55.4693ZM82.9586 51.7814V48.9776H82.1423V55.4693H82.9586V52.7665L83.2902 52.4382L85.7646 55.4693H86.8615L83.8514 51.8825L86.8105 48.9776H85.7391L82.9586 51.7814ZM95.2795 0.277852C95.7387 0.277852 96.1213 0.429407 96.4275 0.757777C96.7336 1.06089 96.9121 1.46504 96.9121 1.89444C96.9121 2.34911 96.7591 2.728 96.4275 3.03111C96.1213 3.35948 95.7132 3.51103 95.2795 3.51103C94.8204 3.51103 94.4377 3.35948 94.1061 3.03111C93.8 2.728 93.6214 2.32385 93.6214 1.89444C93.6214 1.43978 93.7745 1.06089 94.1061 0.757777C94.4377 0.454666 94.8204 0.277852 95.2795 0.277852ZM97.1927 1.89444C97.1927 1.38926 97.0142 0.934591 96.6315 0.555703C96.2489 0.202074 95.8152 0 95.2795 0C94.7439 0 94.3102 0.176815 93.9276 0.555703C93.5449 0.934591 93.3664 1.364 93.3664 1.89444C93.3664 2.42489 93.5449 2.85429 93.9276 3.23318C94.3102 3.61207 94.7439 3.78888 95.2795 3.78888C95.8152 3.78888 96.2489 3.61207 96.6315 3.23318C96.9887 2.87955 97.1927 2.42489 97.1927 1.89444ZM95.7897 1.49029C95.7897 1.64185 95.7132 1.76815 95.5601 1.81866C95.4836 1.84392 95.3561 1.86918 95.203 1.86918H94.8714V1.11141H95.1775C95.3816 1.11141 95.5346 1.13667 95.6367 1.18718C95.7387 1.26296 95.7897 1.33874 95.7897 1.49029ZM94.5143 0.858814V2.93007H94.8714V2.12178H95.152C95.3561 2.12178 95.4836 2.14703 95.5601 2.19755C95.6877 2.27333 95.7642 2.42489 95.7642 2.67748V2.93007H96.1213L96.0958 2.90481C96.0958 2.87955 96.0703 2.85429 96.0703 2.80377V2.50066C96.0703 2.39963 96.0193 2.29859 95.9683 2.17229C95.8918 2.07126 95.7642 1.99548 95.6112 1.97022C95.7387 1.94496 95.8407 1.9197 95.9173 1.86918C96.0448 1.79341 96.1213 1.64185 96.1213 1.46504C96.1213 1.21244 96.0193 1.03563 95.7897 0.934591C95.6622 0.884073 95.4836 0.858814 95.203 0.858814H94.5143Z" fill="#9B99AB"/>
</g>
<defs>
<clipPath id="clip0_110_4502">
<rect width="97" height="55.7471" fill="white" transform="translate(0.200195)"/>
</clipPath>
</defs>
</svg>
