<svg width="125" height="56" viewBox="0 0 125 56" fill="none" xmlns="http://www.w3.org/2000/svg">
<g clip-path="url(#clip0_110_4496)">
<path fill-rule="evenodd" clip-rule="evenodd" d="M16.0027 25.1024C16.143 24.4019 16.1901 23.2818 16.2371 21.7415H16.9853C17.0323 22.7684 17.0793 23.4219 17.1727 23.6083C17.2197 23.7953 17.4534 23.9816 17.7342 24.1687C18.0612 24.4019 18.4824 24.589 19.0438 24.776C19.5583 24.9161 20.0728 25.0093 20.5872 25.0093C21.3361 25.0093 21.991 24.8222 22.5988 24.4958C23.2066 24.1694 23.6747 23.7021 23.9547 23.1887C24.2314 22.6379 24.3756 22.0304 24.3759 21.4143C24.3749 20.9836 24.2957 20.5567 24.1421 20.1542C24.0018 19.8277 23.8151 19.5475 23.5336 19.3143C23.1993 19.1186 22.8362 18.9768 22.4577 18.894C21.9142 18.8023 21.3684 18.7242 20.8209 18.66C20.0257 18.5668 19.3239 18.4267 18.7624 18.3336C18.0142 18.0996 17.4527 17.8194 17.1257 17.493C16.7516 17.2128 16.4708 16.7932 16.2371 16.279C16.0027 15.7656 15.9093 15.2521 15.9093 14.6448C15.9093 13.8042 16.1438 13.0112 16.5642 12.2638C17.0469 11.4891 17.7461 10.8724 18.5757 10.4894C19.4179 10.0691 20.3998 9.88281 21.4287 9.88281C22.0366 9.88281 22.6914 9.92903 23.4403 10.1161C24.1414 10.2562 24.8433 10.5364 25.4518 10.8159C25.37 11.2486 25.3074 11.6847 25.2644 12.123C25.2181 12.4963 25.2181 13.1037 25.1711 13.8504H24.4229C24.4229 12.7296 24.3759 12.123 24.3295 12.0298C24.1398 11.7399 23.883 11.4999 23.5806 11.33C22.8325 10.9097 22.0843 10.6765 21.2421 10.6765C20.2131 10.6765 19.3716 11.0029 18.7168 11.6102C18.1083 12.2638 17.7812 13.1044 17.7812 14.0844C17.7812 14.6917 17.9216 15.2052 18.1553 15.5316C18.342 15.858 18.7631 16.1382 19.3246 16.3252C19.7457 16.4653 20.4005 16.6054 21.2891 16.6986C22.1783 16.8387 23.0199 16.9788 23.7217 17.1189C24.4236 17.3059 24.9381 17.5392 25.2651 17.8187C25.5466 18.0989 25.8266 18.4722 26.0603 18.9395C26.2477 19.4067 26.3411 19.9195 26.3411 20.5268C26.3411 22.021 25.7796 23.2811 24.5633 24.355C23.3469 25.4289 21.8035 25.9892 19.9324 25.9892C18.5721 25.9945 17.2284 25.6912 16.0027 25.1024ZM27.4626 10.8642V10.1637C28.6319 10.2107 29.7542 10.2107 30.7838 10.2107C31.8135 10.2107 32.7953 10.2107 33.8243 10.1637V10.8642C32.982 10.8642 32.4676 10.9104 32.3272 10.9574C32.1405 11.0505 32.0001 11.0975 31.9531 11.2376C31.8598 11.3777 31.7657 11.7041 31.7657 12.2645C31.7657 12.4515 31.7187 13.4785 31.6724 15.3922V19.4074C31.6724 20.9478 31.8127 22.0217 31.9994 22.4882C32.1845 22.9887 32.5091 23.426 32.935 23.7484C33.2621 23.9816 33.7302 24.1687 34.2917 24.3088C34.8532 24.4951 35.461 24.542 36.1629 24.542C36.9581 24.542 37.7062 24.4489 38.3148 24.2618C38.9233 24.0286 39.3907 23.7953 39.7178 23.5151C40.0448 23.2349 40.2793 22.9085 40.4189 22.5351C40.5593 22.2087 40.6997 21.6952 40.7467 21.0879C40.84 20.4806 40.8871 19.6876 40.8871 18.7539V15.3929C40.8871 14.4122 40.8408 13.4322 40.7937 12.4985C40.7937 11.7987 40.7474 11.3784 40.6534 11.2383C40.5284 11.1237 40.3863 11.0291 40.2322 10.9581C40.0919 10.9112 39.5774 10.8649 38.7352 10.8649V10.1637C39.9515 10.2107 40.793 10.2107 41.3545 10.2107C41.8697 10.2107 42.7582 10.2107 44.0679 10.1637V10.8642C43.2257 10.8642 42.7112 10.9104 42.5245 10.9574C42.3835 11.0269 42.2567 11.1219 42.1504 11.2376C42.0571 11.3777 42.01 11.7041 42.01 12.2645C41.9637 12.4515 41.9167 13.4785 41.9167 15.3922V19.0334C41.9167 20.807 41.7763 22.0679 41.5426 22.8146C41.2619 23.5144 40.7944 24.1217 40.1396 24.6821C39.6251 25.1017 39.0166 25.3819 38.2221 25.6159C37.3712 25.8639 36.4893 25.9896 35.6028 25.9892C34.4805 25.9892 33.4979 25.8491 32.6557 25.5682C31.8605 25.288 31.2056 24.9616 30.7852 24.5413C30.3641 24.0748 30.0834 23.6545 29.896 23.1873C29.7086 22.5806 29.6152 21.5999 29.6152 20.1997V15.3915C29.6152 14.4108 29.5689 13.4308 29.5219 12.4971C29.5219 11.7973 29.4756 11.377 29.3815 11.2369C29.2882 11.1437 29.1478 11.0498 29.0074 10.9567C28.8193 10.9104 28.3041 10.8642 27.4626 10.8642ZM45.7987 25.6621V25.0555C46.1112 24.9333 46.4093 24.7768 46.6872 24.589C46.7813 24.4951 46.8276 24.4019 46.8746 24.3088C46.9217 24.1217 46.9687 23.7014 46.9687 23.0016C47.015 22.021 47.062 21.4143 47.062 21.2273V15.3915C47.062 14.4108 47.0157 13.4308 46.9687 12.4971C46.9687 11.7973 46.9217 11.377 46.8283 11.2369C46.735 11.1437 46.6409 11.0498 46.4542 10.9567C46.2675 10.9097 45.7531 10.8635 44.9108 10.8635V10.1637C46.6879 10.2107 47.8109 10.2107 48.232 10.2107C48.6995 10.2107 49.7284 10.2107 51.3651 10.1637V10.8642C50.4766 10.8642 49.9621 10.9104 49.7754 10.9574C49.588 11.0505 49.4484 11.0975 49.4013 11.2376C49.308 11.3777 49.261 11.7041 49.2139 12.2645C49.2139 12.4515 49.2139 13.4785 49.1676 15.3922V22.6745C49.1676 23.4682 49.1676 24.0755 49.2139 24.542C50.0562 24.589 50.8514 24.6352 51.6929 24.6352C53.7044 24.6352 55.1545 24.4951 55.9497 24.2149C56.043 24.0286 56.1371 23.7477 56.2304 23.4682L56.6508 21.6945H57.3997C57.2593 22.7677 57.0719 24.0755 56.9323 25.522C56.6508 25.5682 56.4171 25.6159 56.2304 25.6159C55.8563 25.6159 55.2485 25.6614 54.4526 25.6614L47.9506 25.5682C47.2487 25.569 46.5469 25.6166 45.7987 25.6621ZM59.4568 25.6621V25.0555C59.925 24.8685 60.205 24.6821 60.3461 24.589C60.4394 24.4951 60.4865 24.4019 60.4865 24.3088C60.5798 24.1217 60.6269 23.7014 60.6269 23.0016C60.6732 22.021 60.7202 21.4143 60.7202 21.2273V15.3915C60.7202 14.4108 60.6732 13.4308 60.6269 12.4971C60.6269 11.7973 60.5805 11.377 60.4865 11.2369C60.3931 11.1437 60.2991 11.0498 60.1124 10.9567C59.9257 10.9097 59.4105 10.8635 58.569 10.8635V10.1637C60.3468 10.2107 61.4691 10.2107 61.8902 10.2107C62.3576 10.2107 63.3866 10.2107 65.0247 10.1637V10.8642C64.1354 10.8642 63.6203 10.9104 63.4343 10.9574C63.2462 11.0505 63.1072 11.0975 63.0602 11.2376C62.9669 11.3777 62.9198 11.7041 62.8728 12.2645C62.8728 12.4515 62.8265 13.4785 62.8265 15.3922V22.6745C62.8265 23.4682 62.8265 24.0755 62.8728 24.542C63.7158 24.589 64.5102 24.6352 65.3518 24.6352C67.3626 24.6352 68.8126 24.4951 69.6078 24.2149C69.7026 24.0286 69.7959 23.7477 69.8893 23.4682L70.3111 21.6945H71.0586C70.9196 22.7677 70.7315 24.0755 70.5912 25.522C70.3111 25.5682 70.0774 25.6159 69.89 25.6159C69.5159 25.6159 68.9074 25.6614 68.1129 25.6614L61.6109 25.5682C60.9069 25.569 60.205 25.6166 59.4568 25.6621ZM78.7748 24.9623V25.6621C77.2314 25.6166 76.2488 25.569 75.7336 25.569L72.4131 25.6621V24.9623C73.2554 24.9161 73.7698 24.8692 73.9565 24.8222C74.0971 24.7733 74.2249 24.6936 74.3306 24.589C74.3776 24.4019 74.471 24.0755 74.471 23.5151C74.471 23.375 74.518 22.3481 74.5643 20.4336V15.3922C74.5643 14.4115 74.5187 13.4315 74.471 12.4978C74.471 11.798 74.424 11.3777 74.3306 11.2376C74.2059 11.1229 74.0641 11.0284 73.9102 10.9574C73.7698 10.9104 73.2547 10.8642 72.4124 10.8642V10.1637C73.7691 10.2107 74.8451 10.2107 75.594 10.2107C76.3414 10.2107 77.3711 10.2107 78.7741 10.1637V10.8642C77.9318 10.8642 77.4174 10.9104 77.2307 10.9574C77.0426 11.0505 76.9492 11.0975 76.8566 11.2376C76.811 11.3777 76.7162 11.7041 76.7162 12.2645C76.7162 12.4515 76.6706 13.4785 76.6229 15.3922V20.4336C76.6229 21.4136 76.6699 22.3481 76.6699 23.3281C76.7155 23.9816 76.7633 24.4019 76.8103 24.542C76.9089 24.6861 77.0596 24.7865 77.2307 24.8222C77.4181 24.8692 77.9333 24.9161 78.7748 24.9623ZM87.0546 25.7567C86.8679 25.1024 86.4005 23.8892 85.6979 22.1148L82.0026 12.9181C81.5822 11.9381 81.3485 11.3777 81.2538 11.2376C81.2082 11.1444 81.1148 11.0975 80.9737 11.0505C80.8334 10.9574 80.4115 10.9104 79.7574 10.8642V10.1637C81.1141 10.2107 82.0953 10.2107 82.7038 10.2107C83.3123 10.2107 84.2942 10.2107 85.6972 10.1637V10.8642C84.8094 10.8642 84.2942 10.9104 84.1538 10.9104C84.0135 10.9574 83.9201 10.9574 83.8738 11.0505C83.8241 11.102 83.7911 11.1671 83.779 11.2376C83.779 11.3315 83.8261 11.5178 83.9671 11.8449C84.1962 12.65 84.4613 13.4445 84.7616 14.2259L88.1769 22.816L91.0299 15.7193C91.4503 14.6924 91.8244 13.5716 92.1992 12.3584C92.3874 11.8449 92.433 11.5178 92.433 11.3784C92.433 11.2383 92.3396 11.0982 92.1529 11.0513C92.0126 11.005 91.4503 10.9112 90.4692 10.8649V10.1637C91.5907 10.2107 92.3866 10.2107 92.9481 10.2107C93.5096 10.2107 94.3048 10.2107 95.2874 10.1637V10.8642C94.7723 10.8642 94.4452 10.9104 94.3048 10.9574C94.2115 11.0036 94.1167 11.0975 94.0234 11.2838C93.93 11.377 93.6963 11.9843 93.1811 13.0582L89.8129 21.4143L88.9707 23.562C88.784 23.9816 88.6436 24.3557 88.5032 24.6828C88.4099 24.963 88.3166 25.3364 88.1762 25.7567H87.0546ZM98.3272 12.9643L101.041 19.5468H95.5219L98.3272 12.9643ZM92.7614 25.569C93.4156 25.569 94.3048 25.6159 95.5675 25.6621V24.9623C94.8663 24.9161 94.3982 24.9161 94.1174 24.8222C93.9771 24.8222 93.8374 24.7291 93.7433 24.6359C93.6852 24.5716 93.652 24.4886 93.65 24.4019C93.65 24.1687 93.7904 23.7953 93.9771 23.2818L95.1478 20.4806H101.462L102.818 23.8422C102.912 24.0762 102.959 24.3095 102.959 24.4496C102.957 24.5365 102.923 24.6197 102.864 24.6835C102.818 24.7767 102.677 24.8229 102.491 24.8699C102.351 24.9168 101.836 24.9168 101.041 24.963V25.6628L104.548 25.5697C104.97 25.5697 105.765 25.6166 106.888 25.6628V24.963C106.327 24.9168 105.953 24.8699 105.812 24.8229C105.624 24.7298 105.485 24.5427 105.344 24.3095C105.111 23.8422 104.595 22.7222 103.847 20.9478L99.2164 10.0236H98.4675C97.5327 12.3577 96.8771 13.8518 96.5971 14.5523L93.8374 20.6683C93.0415 22.4889 92.574 23.4689 92.433 23.7491C92.1992 24.2163 92.0589 24.5427 91.9192 24.6366C91.7788 24.7298 91.6841 24.8229 91.5451 24.8699C91.4048 24.9168 91.0299 24.9168 90.4692 24.963V25.6628C91.3114 25.6166 92.0589 25.569 92.7614 25.569ZM108.009 25.6621V24.9623C108.805 24.9161 109.273 24.8692 109.554 24.7753C109.647 24.7291 109.693 24.6352 109.741 24.542C109.834 24.4019 109.881 24.0286 109.929 23.4219C109.975 22.4413 109.975 21.6476 109.975 20.9478V12.0775C109.975 11.8442 109.975 11.7041 109.929 11.6109C109.882 11.4708 109.741 11.3307 109.555 11.1437C109.414 11.0036 109.273 10.9574 109.087 10.9104C108.899 10.8642 108.525 10.8642 107.964 10.8642V10.1637C109.226 10.2107 110.023 10.2107 110.35 10.2107C110.865 10.2107 111.426 10.2107 111.987 10.1637C112.595 10.9574 113.016 11.564 113.296 11.9381L115.542 14.6924L118.77 18.6607C119.845 19.9209 120.687 20.9485 121.296 21.6483C121.716 22.1155 122.044 22.4889 122.324 22.7691V14.8325C122.324 14.1327 122.278 13.2921 122.23 12.3584C122.23 11.751 122.183 11.3784 122.09 11.2376C122.038 11.138 121.956 11.0566 121.856 11.0043C121.623 10.9112 121.107 10.8642 120.36 10.8642V10.1637C121.202 10.2107 122.09 10.2107 122.979 10.2107C123.774 10.2107 124.57 10.2107 125.224 10.1637V10.8642C124.475 10.8642 123.962 10.9104 123.726 11.0043C123.633 11.0505 123.587 11.1444 123.539 11.2376C123.446 11.3777 123.399 11.751 123.353 12.4053C123.306 13.3384 123.306 14.179 123.306 14.8794V20.1079C123.306 21.1818 123.306 23.1425 123.353 26.0362L122.23 25.7098L121.948 25.6628C121.948 25.6173 121.903 25.6173 121.855 25.5697L121.434 25.1501C120.826 24.4496 120.405 23.9361 120.125 23.5628L118.72 21.7884L110.956 12.4046V20.9009C110.956 21.6007 111.003 22.4413 111.05 23.4219C111.05 24.0293 111.097 24.4019 111.19 24.542C111.243 24.6413 111.324 24.7226 111.424 24.7753C111.658 24.8685 112.173 24.9154 112.922 24.9623V25.6621C112.266 25.6166 111.565 25.569 110.769 25.569C109.928 25.569 109.039 25.6166 108.009 25.6621ZM21.1943 35.841C21.1943 38.1743 20.3991 39.0149 18.5287 39.0149C16.6575 39.0149 15.8623 38.222 15.8623 35.7941V30.5656H16.5635V35.841C16.5635 37.6146 16.9846 38.5008 18.5287 38.5008C20.1184 38.5008 20.4932 37.6146 20.4932 35.841V30.5656H21.1943V35.841ZM34.2454 38.1743C34.1984 36.8672 34.1984 34.2992 34.1984 30.5656H34.9002V38.8748H33.8713C31.7194 35.0943 30.3164 32.5732 29.6145 31.2661H29.5682C29.6145 32.5732 29.6145 35.1398 29.6145 38.8748H28.9127V30.5656H29.9416C32.0935 34.3461 33.5435 36.8672 34.2454 38.1743ZM42.6642 30.5656H43.366V38.8741H42.6642V30.5656ZM53.2826 38.3144C53.6224 37.0797 53.9811 35.8501 54.3585 34.6263L55.5749 30.5649H56.2767L53.7044 38.8741H52.8622L50.2892 30.5649H50.991L52.2074 34.6719C52.5905 35.8786 52.949 37.0931 53.2826 38.3144ZM66.8011 34.253V34.8127H63.8533V38.3144H67.736V38.8741H63.1521V30.5656H67.5956V31.1253H63.8533V34.253H66.8011ZM75.5954 34.7657V31.1253H76.8573C78.5411 31.1253 79.0562 31.7781 79.0562 32.9466C79.0562 34.1136 78.3551 34.7664 77.1844 34.7664L75.5954 34.7657ZM77.6996 35.2337C78.8225 35.0936 79.7581 34.3931 79.7581 32.8989C79.7581 31.2184 78.6351 30.5656 76.9051 30.5656H74.8928V38.8748H75.5954V35.3275H77.044L79.29 38.8748H80.1778L77.6996 35.2337ZM90.3751 31.9652C90.1884 31.4986 89.768 30.9375 88.8317 30.9375C88.318 30.9375 87.8505 31.1253 87.5698 31.4041C87.3361 31.5918 87.1957 31.9182 87.1957 32.3385C87.1957 32.805 87.3824 33.1791 87.6631 33.4124C87.9902 33.6919 88.3187 33.8789 89.2065 34.2985C90.0024 34.7195 90.4229 34.9058 90.7499 35.233C91.0314 35.5594 91.3121 36.0259 91.3121 36.6788C91.3121 37.2399 91.0784 37.7995 90.7036 38.2206C90.2818 38.5925 89.674 39.0135 88.7861 39.0135C87.3361 39.0135 86.6342 38.3592 86.3535 37.5186L87.0076 37.4255C87.2427 37.9396 87.8035 38.4993 88.7861 38.4993C89.4402 38.4993 89.8621 38.2198 90.1891 37.892C90.4229 37.6125 90.6095 37.1922 90.6095 36.7726C90.6095 36.2115 90.3758 35.8851 90.1421 35.6042C89.8621 35.4179 89.535 35.2322 88.6458 34.7636C87.6631 34.2971 87.3824 34.1107 87.1024 33.8305C86.7739 33.5041 86.4939 33.0376 86.4939 32.3833C86.4939 31.8706 86.6805 31.4026 87.0546 31.0307C87.4765 30.6573 88.0372 30.4234 88.8795 30.4234C90.1891 30.4234 90.7969 31.0762 91.0314 31.8706L90.3751 31.9652ZM98.4205 30.5656H99.1231V38.8741H98.4205V30.5656ZM111.565 31.1253H109.132V38.8741H108.431V31.1253H106.046V30.5656H111.565V31.1253ZM120.827 35.4669V38.8741H120.126V35.4669L117.646 30.5649H118.442L119.47 32.7126C119.797 33.4586 120.126 34.1598 120.498 34.9058C120.872 34.1598 121.201 33.4124 121.528 32.7126L122.556 30.5649H123.305L120.827 35.4669Z" fill="#9B99AB"/>
<path d="M16.0029 28.0898H123.353" stroke="#9B99AB" stroke-width="8.43035" stroke-miterlimit="2.613"/>
<path fill-rule="evenodd" clip-rule="evenodd" d="M11.9799 10.5837C10.5298 7.40906 11.4654 14.2256 10.4365 16.3726C9.64129 18.1 9.2672 18.7066 7.77013 20.481C6.78824 21.5548 5.10377 24.0759 4.40191 24.4493C4.16819 22.0213 5.71158 19.501 6.88087 17.2601C7.30127 16.3263 9.73392 12.2187 10.2484 8.62372C10.9966 3.11505 7.20793 -1.3667 7.44236 0.267552C7.86276 2.46149 8.28388 4.14197 7.95682 5.96255C7.02124 11.425 5.89826 12.0316 3.98079 15.7197C3.13856 17.2139 -0.228958 22.1621 0.00475857 26.7371C0.332532 33.1333 4.26154 36.7751 5.47786 37.7089C6.22675 38.1754 5.10377 34.4404 5.38451 32.2934C5.89898 29.2581 7.02195 27.1111 8.70571 25.1042C10.8576 22.5369 12.4473 20.4362 12.8221 16.9344C13.1029 14.4112 11.9799 10.5368 11.9799 10.5837Z" fill="#9B99AB"/>
<path fill-rule="evenodd" clip-rule="evenodd" d="M8.61239 38.8738C8.79979 35.9794 9.22091 34.0194 10.3432 32.5246C11.045 31.4984 12.2607 29.2106 12.074 26.9227C12.0276 25.7088 10.5306 21.8336 10.5769 24.5418C10.4836 25.7088 10.5769 26.2685 10.2498 27.3423C9.26794 30.1912 6.4612 31.4507 6.36715 34.7655C6.2738 36.7738 8.47202 40.2286 8.61239 38.8738ZM16.3771 47.651V47.6041C16.7982 47.651 17.1723 47.651 17.5934 47.651C17.8741 47.651 18.2952 47.651 18.6693 47.6041L18.7164 47.651L18.6693 47.8843L18.623 47.9312C18.4356 47.9312 18.0615 47.9312 18.0145 48.0699C17.9211 48.2576 17.6874 49.377 17.5 50.591C18.576 49.6579 20.0253 48.1168 20.0723 47.9312C20.0723 47.8366 20.0723 47.7435 20.1187 47.6503V47.6034C20.3061 47.6503 20.4927 47.6503 20.7272 47.6503C20.9146 47.6503 21.1483 47.6503 21.3357 47.6034L21.382 47.6503L21.3357 47.8836L21.2887 47.9305C20.9616 47.9305 20.8212 47.9305 20.3531 48.3501L18.2952 50.4046L20.2127 52.8326C20.5868 53.2991 20.7272 53.3453 21.102 53.3453L21.1483 53.3923L21.102 53.6255L21.0549 53.671C20.8212 53.6255 20.6338 53.6255 20.4001 53.6255C20.1664 53.6255 19.979 53.6255 19.7453 53.671C19.4182 53.1583 18.3416 51.7587 17.5 50.7304C17.2663 51.8512 17.1259 52.925 17.1259 53.1113C17.1259 53.2514 17.2193 53.3446 17.8278 53.3446L17.8741 53.3915L17.8278 53.6248L17.7808 53.6703C17.4067 53.6248 16.9856 53.6248 16.6115 53.6248H15.4422L15.4892 53.3915L15.5355 53.3446C15.7229 53.3446 16.097 53.3446 16.1904 53.2059C16.3307 52.8781 17.0326 48.4902 17.0326 48.1638C17.0326 48.0237 16.9856 47.9305 16.3307 47.9305V47.8836L16.3771 47.651ZM24.0013 50.3122C24.0013 51.012 23.1121 51.5717 22.3176 51.6648C22.5983 50.6841 22.785 49.8912 23.5339 49.8912C23.8147 49.8919 24.0013 50.032 24.0013 50.3122ZM21.4754 52.6C21.4754 53.393 22.0368 53.767 22.5513 53.767C23.2525 53.767 24.0947 53.1597 24.3284 52.9264L24.3747 52.8795L24.3284 52.6932H24.2821C23.908 53.0196 23.3928 53.3005 22.9724 53.3005C22.5983 53.3005 22.2242 53.0196 22.2242 52.366C22.2242 52.1328 22.2706 52.0396 22.2706 51.8995C24.1887 51.5276 24.7965 50.7801 24.7965 50.1728C24.7965 49.8464 24.5628 49.5185 23.9543 49.5185C23.2061 49.5185 22.3176 50.1259 22.0368 50.5462C21.7091 51.0127 21.4754 52.0389 21.4754 52.6ZM25.0303 50.4054L25.0773 50.3584C25.264 50.2183 26.1062 49.5655 26.4803 49.5655C26.714 49.5655 26.8074 49.6586 26.8074 49.8464C26.8074 50.0796 26.714 50.3129 26.4333 51.3398L26.4796 51.3868C27.0411 50.3591 28.1633 49.5655 28.7248 49.5655C29.0519 49.5655 29.146 49.7518 29.146 49.9388C29.146 50.1252 29.0056 50.7318 28.8189 51.3861C28.6785 52.0858 28.4448 52.7387 28.4448 52.9264C28.4448 53.0196 28.5382 53.1128 28.5852 53.1128C28.6785 53.1128 29.0063 52.9264 29.2863 52.6932H29.3334L29.4267 52.8333V52.8788C28.9593 53.2522 28.3037 53.7194 27.9767 53.7194C27.79 53.7194 27.6026 53.5793 27.6026 53.2998C27.6026 52.7856 28.2574 50.965 28.2574 50.4054C28.2574 50.2653 28.1641 50.2176 28.07 50.2176C27.6959 50.2176 26.8537 51.012 26.5266 51.7125C26.2922 52.179 26.1525 52.9264 26.0585 53.5793C25.7777 53.6262 25.497 53.6262 25.2633 53.7194L25.217 53.6724C25.4977 52.8333 25.9188 50.8249 25.9188 50.3584C25.9188 50.2653 25.8718 50.2183 25.7784 50.2183C25.6844 50.2183 25.4044 50.3584 25.1699 50.5462H25.1229L25.0303 50.4054ZM31.9534 52.7387V52.7856C31.2052 53.4385 30.6908 53.7187 30.363 53.7187C30.0352 53.7187 30.0359 53.4854 30.0359 53.3923C30.0359 53.1113 30.457 51.2445 30.6444 50.357H29.8956V50.1707H29.9419C30.1763 50.0775 30.5504 49.9374 30.7371 49.7973L30.9708 48.3501C31.2986 48.21 31.486 48.1168 31.719 48.0237L31.813 48.1168C31.6727 48.4433 31.5786 49.0499 31.3919 49.8905C31.8601 49.8905 32.2341 49.845 32.3745 49.7973L32.4208 49.8905C32.3745 49.9836 32.3275 50.2169 32.2805 50.3115V50.357C31.9997 50.357 31.6256 50.3115 31.2986 50.3115C30.8775 52.5517 30.8304 52.7856 30.8304 52.9257C30.8304 53.0658 30.8775 53.1121 30.9708 53.1121C31.1112 53.1121 31.3919 52.972 31.813 52.6455H31.8593L31.9534 52.7387ZM32.3745 50.4054V50.3584C33.2631 49.7056 33.6372 49.5178 33.8716 49.5178C34.059 49.5178 34.1987 49.6579 34.1987 49.8457C34.1987 50.3122 33.5438 52.2722 33.5438 52.8333C33.5438 53.0196 33.5908 53.0665 33.6842 53.0665C34.0112 53.0665 35.0409 51.8981 35.2283 51.3384C35.462 50.6841 35.5553 50.2176 35.6957 49.7049C35.8361 49.7049 36.3035 49.6103 36.3976 49.5171L36.4909 49.6103C36.2565 50.1244 35.742 52.5993 35.742 52.8788C35.742 53.0189 35.7891 53.0665 35.8824 53.0665C35.9757 53.0665 36.1632 53.0196 36.5372 52.6932H36.5843L36.6776 52.8333V52.8788C36.1632 53.3453 35.5083 53.7194 35.1805 53.7194C34.9931 53.7194 34.8998 53.6262 34.8998 53.393C34.8998 53.2066 34.9461 52.8333 35.2269 51.8981L35.1798 51.8526C34.7587 52.6 33.7298 53.7194 33.075 53.7194C32.8412 53.7194 32.7009 53.5793 32.7009 53.2998C32.7009 52.7856 33.2624 51.012 33.2624 50.4054C33.2624 50.2653 33.216 50.2176 33.122 50.2176C33.0279 50.2176 32.8412 50.3122 32.4672 50.591V50.5455L32.3745 50.4054ZM40.0922 52.8333L40.0458 52.9264C39.2977 53.4861 38.7832 53.767 38.2687 53.767C37.5198 53.767 37.1458 53.1597 37.1458 52.413C37.1458 51.9465 37.3324 50.9658 37.8006 50.3584C37.9873 50.2183 38.0343 50.1721 38.5025 49.8919C39.0639 49.5655 39.2977 49.4723 39.5784 49.4723C39.9055 49.4723 40.1869 49.611 40.3736 49.7056V49.7511C40.3266 50.0789 40.2332 50.4054 40.2332 50.7787L40.1869 50.8242H39.9525V50.7787V50.1245C39.9055 50.0789 39.5314 49.9381 39.2043 49.9381C38.5495 49.9381 38.3621 50.3577 38.2224 50.7787C38.035 51.3861 37.9417 51.9457 37.9417 52.2722C37.9417 52.6 37.988 53.2998 38.6428 53.2998C38.9243 53.2998 39.2513 53.2066 39.9995 52.6455H40.0458L40.0922 52.8333ZM44.3952 52.9264V52.972C43.9741 53.3453 43.3663 53.7194 43.226 53.7194C42.9922 53.7194 42.8989 53.5331 42.197 51.5262C41.7759 51.9457 41.5885 52.2259 41.4018 53.5331C41.1681 53.5786 40.8403 53.6262 40.6536 53.7194L40.5603 53.6724C40.8874 52.6462 41.7296 48.7704 41.7296 48.2107C41.7296 47.9312 41.6833 47.9312 40.9807 47.9312V47.6965H41.0277C41.4489 47.6965 42.1037 47.5102 42.6181 47.3246L42.7115 47.4178C42.5248 47.9319 42.103 50.2183 41.7759 51.6193V51.6648C43.0385 50.0789 43.7874 49.5171 44.3482 49.5171C44.4416 49.5171 44.5356 49.5171 44.6297 49.5641C44.5826 49.7504 44.4893 49.9374 44.4893 50.1714C44.396 50.1714 44.3019 50.1245 44.1622 50.1245C43.6478 50.1245 43.32 50.3122 42.7592 50.8719C43.4141 52.8788 43.5074 53.0665 43.6941 53.0665C43.8815 53.0665 44.0219 52.972 44.2556 52.8333H44.3019L44.3952 52.9264ZM44.5826 50.4054V50.3584C45.0971 49.9388 45.7049 49.5178 45.9857 49.5178C46.1731 49.5178 46.3597 49.611 46.3597 50.032C46.3597 50.5917 46.1253 51.8056 46.1253 52.6932C46.1253 52.8795 46.2187 52.9727 46.3127 52.9727C46.5935 52.9727 47.1079 52.3653 47.4357 51.7601C47.8098 51.0589 48.0442 49.8464 48.0905 49.7056C48.5116 49.611 48.605 49.611 48.8857 49.5178L48.9321 49.611C48.3706 51.0582 47.7628 54.0003 47.1079 54.8864C46.8272 55.2598 46.032 56.0548 45.3771 56.0548C45.2724 56.0556 45.1686 56.0356 45.0718 55.9959C44.9749 55.9562 44.8869 55.8978 44.8129 55.8238C44.7389 55.7499 44.6804 55.662 44.6407 55.5653C44.6011 55.4686 44.5811 55.365 44.5819 55.2605C44.7223 55.1673 44.909 55.0742 45.0494 54.9341L45.1427 54.981V55.0742C45.1427 55.3074 45.2831 55.6338 45.6572 55.6338C46.1246 55.6338 46.5464 55.0265 46.7802 54.2798L47.388 52.3198H47.3409C46.5927 53.3937 46.1716 53.7201 45.7975 53.7201C45.5168 53.7201 45.3764 53.58 45.3764 53.1604C45.3764 52.3198 45.5638 51.4799 45.5638 50.5924C45.5638 50.266 45.5175 50.1728 45.3301 50.1728C45.2368 50.1728 44.956 50.3591 44.7216 50.5462L44.5826 50.4054ZM50.2424 48.7704C50.1961 48.3039 50.1961 48.1175 50.1961 47.9775C50.1961 47.651 50.3365 47.5109 50.6172 47.5109C50.898 47.5109 51.0383 47.651 51.0383 47.9775C51.0383 48.1175 50.9913 48.3039 50.9443 48.7704L50.8509 49.611C50.8509 49.8919 50.7576 49.9388 50.6172 49.9388C50.4769 49.9388 50.3835 49.8919 50.3365 49.611L50.2424 48.7704ZM54.1251 50.7794H54.0781C54.0781 50.5917 54.1251 50.3129 54.1251 50.2653C54.1251 50.1252 53.6107 49.9843 53.2829 49.9843C52.628 49.9843 52.4406 50.3577 52.4406 50.5917C52.4406 51.6655 54.4522 50.7318 54.4522 52.1321C54.4522 52.6462 54.2648 52.9727 53.704 53.346C53.2829 53.6269 53.0492 53.7194 52.581 53.7194C52.2405 53.7147 51.9052 53.6351 51.5991 53.4861V53.4392C51.6925 53.1128 51.7395 52.6932 51.7865 52.3653L51.8328 52.3198H52.0202V52.9727C52.0666 53.0673 52.5347 53.3005 52.9558 53.3005C53.4703 53.3005 53.8444 53.0672 53.8444 52.5061C53.8444 52.0396 53.5173 51.9464 52.9095 51.8988C52.301 51.8056 51.8336 51.5724 51.8336 50.9658C51.8336 50.1252 53.0028 49.5185 53.6577 49.5185C53.9384 49.5185 54.2192 49.5655 54.4999 49.7063L54.5469 49.7518C54.4066 50.1728 54.4066 50.266 54.3595 50.7794H54.1251ZM62.3102 49.1445V49.099C62.3102 48.9112 62.3102 48.4447 62.2639 48.3992C61.8284 48.1285 61.3267 47.9829 60.8138 47.9782C59.036 47.9782 58.4752 49.5185 58.4752 51.0589C58.4752 52.787 59.5512 53.2074 60.3927 53.2074C61.2813 53.2074 61.8898 52.9264 62.4042 52.6L62.4506 52.6455C62.4506 52.7387 62.4042 52.8788 62.4042 53.0189C61.7957 53.4385 61.1416 53.7663 60.206 53.7663C58.4282 53.7663 57.5397 52.7856 57.5397 51.0575C57.5397 48.631 59.5512 47.5102 61.1416 47.5102C61.7964 47.5102 62.3109 47.6503 62.8254 47.8366V47.8836C62.685 48.3032 62.5916 48.7242 62.5916 49.0975L62.5446 49.143H62.3102V49.1445ZM63.808 52.9264C63.808 51.9457 64.2284 50.3584 64.4621 50.1721C64.5569 50.0789 64.7906 49.9843 65.0706 49.9843C65.3521 49.9843 65.5858 50.0313 65.8195 50.1721C65.6328 51.8988 64.1357 53.1128 63.902 53.1128C63.808 53.1128 63.808 53.0665 63.808 52.9264ZM66.2862 49.7511C65.9121 49.5648 65.6321 49.5178 65.444 49.5178C64.7428 49.5178 63.9939 50.1721 63.8536 50.3122C63.5265 50.7318 63.012 51.9457 63.012 53.0665C63.012 53.5793 63.1061 53.7194 63.3861 53.7194C64.0417 53.7194 65.1647 52.4123 65.538 51.7594C65.258 52.6 65.1176 53.2066 65.1176 53.4385C65.1176 53.6262 65.211 53.7194 65.4447 53.7194C65.7261 53.7194 66.1936 53.4861 66.8947 52.8788V52.8333L66.8014 52.6932C66.5199 52.9727 66.2406 53.1128 66.1002 53.1128C66.0055 53.1128 65.9599 53.0673 65.9599 52.9727C65.9599 52.6932 66.5684 49.9851 66.7544 49.611L66.5677 49.5178L66.2862 49.7511ZM67.2688 50.4054V50.3584C67.5503 50.0789 68.3918 49.5178 68.7666 49.5178C68.9533 49.5178 69.0466 49.6579 69.0466 49.8457C69.0466 50.032 68.8599 50.7787 68.7196 51.2915V51.3384C69.0937 50.5455 69.7955 49.5171 70.4033 49.5171C70.4967 49.5171 70.5437 49.5641 70.59 49.5641V49.6096C70.5014 49.9291 70.4547 50.2587 70.4511 50.5903H70.3107C70.2159 50.4502 70.1226 50.4039 69.9822 50.4039C69.3737 50.4039 68.4859 51.7111 68.2985 53.5779C67.878 53.6248 67.7847 53.6248 67.504 53.718L67.4106 53.671C67.6443 53.2514 68.1595 50.8235 68.1595 50.357C68.1595 50.2638 68.1595 50.2169 68.0191 50.2169C67.8788 50.2169 67.6907 50.3115 67.3636 50.5903L67.2688 50.4054ZM73.1623 50.3122C73.1623 51.012 72.2731 51.5717 71.4786 51.6648C71.76 50.6841 71.946 49.8912 72.6949 49.8912C72.9749 49.8919 73.1623 50.032 73.1623 50.3122ZM70.637 52.6C70.637 53.393 71.1978 53.767 71.713 53.767C72.4141 53.767 73.2564 53.1597 73.4901 52.9264L73.5371 52.8795L73.4901 52.6932H73.4445C73.0704 53.0196 72.5552 53.3005 72.1334 53.3005C71.7607 53.3005 71.3859 53.0196 71.3859 52.366C71.3859 52.1328 71.4315 52.0396 71.4315 51.8995C73.349 51.5276 73.9575 50.7801 73.9575 50.1728C73.9575 49.8464 73.7238 49.5185 73.163 49.5185C72.3671 49.5185 71.4793 50.1259 71.1978 50.5462C70.8708 51.0127 70.637 52.0389 70.637 52.6ZM76.8576 50.3122C76.8576 51.012 75.9683 51.5717 75.1739 51.6648C75.4553 50.6841 75.6413 49.8912 76.3902 49.8912C76.6709 49.8919 76.8576 50.032 76.8576 50.3122ZM74.3316 52.6C74.3316 53.393 74.8924 53.767 75.4076 53.767C76.1087 53.767 76.951 53.1597 77.1847 52.9264L77.2317 52.8795L77.1384 52.6932C76.7643 53.0196 76.2491 53.3005 75.8287 53.3005C75.4546 53.3005 75.0798 53.0196 75.0798 52.366C75.0798 52.1328 75.0798 52.0396 75.1268 51.8995C76.9973 51.5276 77.6058 50.7801 77.6058 50.1728C77.6058 49.8464 77.4177 49.5185 76.8113 49.5185C76.0624 49.5185 75.1731 50.1259 74.8924 50.5462C74.5653 51.0127 74.3316 52.0389 74.3316 52.6ZM77.8402 50.4054V50.3584C78.1673 50.0789 78.9618 49.5178 79.3366 49.5178C79.5247 49.5178 79.618 49.6579 79.618 49.8457C79.618 50.032 79.4313 50.7787 79.291 51.2915V51.3384C79.6651 50.5455 80.3669 49.5171 80.9747 49.5171C81.0681 49.5171 81.1614 49.5641 81.1614 49.5641V49.6096C81.1158 49.9374 81.021 50.3108 81.021 50.5903H80.8821C80.7873 50.4502 80.694 50.4039 80.5536 50.4039C79.9451 50.4039 79.0573 51.7111 78.8699 53.5779C78.4494 53.6248 78.3561 53.6248 78.0754 53.718L77.982 53.671C78.262 53.2514 78.7295 50.8235 78.7295 50.357C78.7295 50.2638 78.7295 50.2169 78.5905 50.2169C78.4958 50.2169 78.262 50.3115 77.982 50.5903H77.935L77.8402 50.4054ZM87.6157 47.651L87.6627 47.6041C88.0368 47.6041 88.4116 47.651 88.7857 47.651C89.1598 47.651 89.5346 47.6041 89.9072 47.6041L89.9543 47.651L89.9072 47.8843L89.8616 47.9312C89.2531 47.9312 89.2531 47.9312 89.1128 48.7704C89.0657 49.0982 88.4116 52.7856 88.4116 53.0665C88.4116 53.2529 88.552 53.2998 89.1605 53.346V53.393L89.1135 53.6262V53.6717C88.832 53.6262 88.5527 53.6262 88.2712 53.6262H87.4297C87.5231 53.2529 87.6164 52.8788 87.6634 52.5524C86.8689 53.4385 86.1671 53.7663 85.4189 53.7663C84.5296 53.7663 83.8755 53.3453 83.8755 52.4123C83.8755 51.9927 84.0145 51.3384 84.1092 50.6386L84.2959 49.7056C84.3429 49.239 84.484 48.4447 84.484 48.2107C84.484 47.9312 84.437 47.9312 83.8285 47.9312L83.7815 47.8843L83.8285 47.651L83.8755 47.6041C84.0145 47.6041 84.5296 47.651 84.8567 47.651C85.0904 47.651 85.4189 47.651 85.5122 47.6041C85.1382 49.4254 84.7178 51.5724 84.7178 52.2722C84.7178 53.0665 85.4189 53.2066 85.746 53.2066C86.5405 53.2066 87.196 52.6455 87.7568 52.0382C87.8972 51.1051 88.3653 48.3977 88.3653 48.21C88.3653 47.9305 88.1786 47.9305 87.6164 47.9305L87.5708 47.8836L87.6157 47.651ZM89.8616 50.4054V50.3584C90.0483 50.2183 90.8899 49.5655 91.2647 49.5655C91.4984 49.5655 91.5917 49.6586 91.5917 49.8464C91.5917 50.0796 91.4984 50.3129 91.2647 51.3398V51.3868C91.8254 50.3591 92.9484 49.5655 93.5569 49.5655C93.8384 49.5655 93.931 49.7518 93.931 49.9388C93.931 50.1252 93.7906 50.7318 93.604 51.3861C93.4636 52.0858 93.2755 52.7387 93.2755 52.9264C93.2755 53.0196 93.3225 53.1128 93.4159 53.1128C93.5092 53.1128 93.7899 52.9264 94.0714 52.6932H94.117L94.2118 52.8333V52.8788C93.7429 53.2522 93.1344 53.7194 92.7617 53.7194C92.5736 53.7194 92.4332 53.5793 92.4332 53.2998C92.4332 52.7856 93.0418 50.965 93.0888 50.4054C93.0888 50.2653 92.9955 50.2176 92.8551 50.2176C92.481 50.2176 91.6388 51.012 91.3117 51.7125C91.1236 52.179 90.9376 52.9264 90.8443 53.5793C90.5628 53.6262 90.3291 53.6262 90.0483 53.7194L90.0027 53.6724C90.2828 52.8333 90.7039 50.8249 90.7039 50.3584C90.7039 50.2653 90.6569 50.2183 90.6091 50.2183C90.4702 50.2183 90.1887 50.3584 89.955 50.5462H89.908L89.8616 50.4054ZM94.6322 50.4054V50.3584C95.0996 49.9851 95.8015 49.5655 96.13 49.5655C96.2689 49.5655 96.457 49.6586 96.457 49.8464C96.457 50.266 95.8015 52.366 95.8015 52.8802C95.8015 53.0203 95.8485 53.1135 95.9418 53.1135C96.0822 53.1135 96.2689 52.9734 96.643 52.6939L96.7363 52.8802V52.9271C96.0352 53.4399 95.6148 53.7201 95.2877 53.7201C95.0526 53.7201 94.9592 53.58 94.9592 53.3467C94.9592 52.9272 95.5677 50.9658 95.5677 50.4061C95.5677 50.266 95.5222 50.1728 95.4274 50.1728C95.334 50.1728 95.1473 50.3129 94.7262 50.5924L94.6322 50.4054ZM96.457 47.6041C96.6437 47.6041 96.8311 47.7918 96.8311 48.0251C96.8311 48.2584 96.643 48.6779 96.2226 48.6779C96.1732 48.6787 96.1243 48.6696 96.0785 48.6511C96.0328 48.6326 95.9912 48.6051 95.9564 48.5703C95.9215 48.5355 95.8939 48.494 95.8754 48.4484C95.8569 48.4027 95.8477 48.3538 95.8485 48.3046C95.8485 47.9774 96.13 47.6041 96.457 47.6041ZM99.8245 50.0789C100.011 49.8912 100.199 49.7056 100.338 49.5648C100.385 49.5178 100.433 49.5178 100.573 49.5178C100.9 49.5178 101.134 49.7511 101.134 50.3122C101.134 51.8526 99.7298 53.7663 98.6082 53.7663C97.9997 53.7663 97.6256 53.2521 97.6256 52.5993C97.6256 51.6648 98.4678 50.5447 98.8419 50.1714V50.1245C98.6449 50.1856 98.4398 50.217 98.2334 50.2176C98.0453 50.2176 97.952 50.1721 97.8116 50.1721C97.6726 50.1721 97.5779 50.3122 97.3912 50.6848L97.3441 50.7318H97.2052L97.1582 50.6848C97.3919 50.1252 97.4396 49.9388 97.5323 49.6586C97.7189 49.6117 97.8593 49.6117 97.9527 49.6117C98.093 49.6117 98.5149 49.6586 98.8419 49.6586C99.0286 49.6586 99.216 49.6117 99.3571 49.6117L99.4504 49.7063C98.7016 50.5469 98.3745 51.7132 98.3745 52.366C98.3745 53.0203 98.7016 53.2536 99.0286 53.2536C100.058 53.2536 100.479 51.4799 100.479 50.6856C100.479 50.3591 100.338 50.1728 100.199 50.1728C100.104 50.1728 100.011 50.1728 99.9172 50.2183L99.8245 50.0789ZM104.221 50.3122C104.221 51.012 103.286 51.5717 102.491 51.6648C102.771 50.6841 103.005 49.8912 103.753 49.8912C104.035 49.8919 104.221 50.032 104.221 50.3122ZM101.648 52.6C101.648 53.393 102.256 53.767 102.771 53.767C103.426 53.767 104.269 53.1597 104.548 52.9264V52.8795L104.502 52.6932H104.455C104.081 53.0196 103.613 53.3005 103.146 53.3005C102.772 53.3005 102.397 53.0196 102.397 52.366C102.397 52.1328 102.444 52.0396 102.492 51.8995C104.362 51.5276 104.971 50.7801 104.971 50.1728C104.971 49.8464 104.737 49.5185 104.176 49.5185C103.427 49.5185 102.492 50.1259 102.211 50.5462C101.929 51.0127 101.648 52.0389 101.648 52.6ZM105.204 50.4054V50.3584C105.485 50.0789 106.327 49.5178 106.654 49.5178C106.887 49.5178 106.981 49.6579 106.981 49.8457C106.981 50.032 106.747 50.7787 106.654 51.2915V51.3384C106.981 50.5455 107.73 49.5171 108.337 49.5171C108.431 49.5171 108.478 49.5641 108.524 49.5641V49.6096C108.435 49.929 108.388 50.2587 108.384 50.5903H108.197C108.15 50.4502 108.057 50.4039 107.916 50.4039C107.307 50.4039 106.372 51.7111 106.232 53.5779C105.811 53.6248 105.718 53.6248 105.437 53.718L105.344 53.671C105.578 53.2514 106.091 50.8235 106.091 50.357C106.091 50.2638 106.046 50.2169 105.952 50.2169C105.812 50.2169 105.624 50.3115 105.297 50.5903H105.251L105.204 50.4054ZM110.864 50.7794V50.2653C110.864 50.1252 110.397 49.9843 110.068 49.9843C109.367 49.9843 109.226 50.3577 109.226 50.5917C109.226 51.6655 111.238 50.7318 111.238 52.1321C111.238 52.6462 111.004 52.9727 110.489 53.346C110.067 53.6269 109.788 53.7194 109.366 53.7194C108.946 53.7194 108.572 53.5793 108.384 53.4861L108.338 53.4392C108.431 53.1128 108.525 52.6932 108.572 52.3653V52.3198H108.758L108.806 52.3653V52.9727C108.806 53.0673 109.321 53.3005 109.693 53.3005C110.209 53.3005 110.583 53.0672 110.583 52.5061C110.583 52.0396 110.256 51.9464 109.693 51.8988C109.086 51.8056 108.617 51.5724 108.617 50.9658C108.617 50.1252 109.74 49.5185 110.396 49.5185C110.676 49.5185 110.957 49.5655 111.284 49.7063V49.7518C111.19 50.1728 111.19 50.266 111.097 50.7794H110.864ZM111.799 50.4054V50.3584C112.266 49.9851 112.922 49.5655 113.295 49.5655C113.436 49.5655 113.624 49.6586 113.624 49.8464C113.624 50.266 112.968 52.366 112.968 52.8802C112.968 53.0203 113.015 53.1135 113.109 53.1135C113.202 53.1135 113.436 52.9734 113.764 52.6939H113.81L113.903 52.8802V52.9271C113.202 53.4399 112.782 53.7201 112.453 53.7201C112.219 53.7201 112.08 53.58 112.08 53.3467C112.08 52.9272 112.735 50.9658 112.735 50.4061C112.735 50.266 112.687 50.1728 112.594 50.1728C112.501 50.1728 112.267 50.3129 111.893 50.5924H111.847L111.799 50.4054ZM113.576 47.6041C113.81 47.6041 113.998 47.7918 113.998 48.0251C113.998 48.2584 113.81 48.6779 113.389 48.6779C113.108 48.6779 112.968 48.4916 112.968 48.3046C112.968 47.9774 113.295 47.6041 113.576 47.6041ZM116.477 52.7387V52.7856C115.682 53.4385 115.215 53.7187 114.886 53.7187C114.559 53.7187 114.559 53.4854 114.559 53.3923C114.559 53.1113 114.933 51.2445 115.12 50.357H114.419V50.1707H114.466C114.7 50.0775 115.075 49.9374 115.215 49.7973L115.495 48.3501C115.822 48.21 116.01 48.1168 116.244 48.0237L116.337 48.1168C116.197 48.4433 116.056 49.0499 115.917 49.8905C116.337 49.8905 116.759 49.845 116.899 49.7973L116.945 49.8905C116.899 49.9836 116.805 50.2169 116.805 50.3115L116.759 50.357C116.525 50.357 116.15 50.3115 115.823 50.3115C115.402 52.5517 115.355 52.7856 115.355 52.9257C115.355 53.0658 115.402 53.1121 115.496 53.1121C115.636 53.1121 115.87 52.972 116.338 52.6455H116.385L116.477 52.7387Z" fill="#9B99AB"/>
<path fill-rule="evenodd" clip-rule="evenodd" d="M116.757 50.4061V50.3591C117.271 49.9396 117.833 49.5186 118.16 49.5186C118.347 49.5186 118.487 49.6117 118.487 50.0327C118.487 50.5924 118.3 51.8064 118.3 52.6939C118.3 52.8802 118.394 52.9734 118.487 52.9734C118.769 52.9734 119.283 52.3661 119.61 51.7609C119.984 51.0596 120.219 49.8471 120.219 49.7063C120.686 49.6117 120.779 49.6117 121.061 49.5186L121.106 49.6117C120.546 51.0589 119.937 54.001 119.283 54.8871C119.002 55.2605 118.16 56.0556 117.504 56.0556C117.13 56.0556 116.757 55.7277 116.71 55.2612C116.898 55.168 117.084 55.0749 117.225 54.9348L117.318 54.9817V55.0749C117.318 55.3081 117.459 55.6346 117.834 55.6346C118.301 55.6346 118.721 55.0272 118.955 54.2805L119.564 52.3205H119.518C118.769 53.3944 118.347 53.7208 117.928 53.7208C117.694 53.7208 117.554 53.5807 117.554 53.1611C117.554 52.3205 117.694 51.4807 117.694 50.5931C117.694 50.2667 117.647 50.1735 117.506 50.1735C117.367 50.1735 117.132 50.3599 116.899 50.5469H116.852L116.757 50.4061Z" fill="#9B99AB"/>
</g>
<defs>
<clipPath id="clip0_110_4496">
<rect width="125" height="56" fill="white"/>
</clipPath>
</defs>
</svg>
